Topmarks-Regular.ufo
<glyph name="exclam" format="1">
  <advance width="961.0"/>
  <unicode hex="0021"/>
  <outline>
    <contour>
      <point x="432.4" y="-3.6" type="curve" smooth="yes"/>
      <point x="508.2" y="-3.6"/>
      <point x="573.2" y="50.6"/>
      <point x="573.2" y="133.0" type="curve" smooth="yes"/>
      <point x="573.2" y="209.8"/>
      <point x="518.8" y="270.6"/>
      <point x="433.4" y="270.6" type="curve" smooth="yes"/>
      <point x="357.6" y="270.6"/>
      <point x="292.6" y="216.8"/>
      <point x="292.6" y="134.8" type="curve" smooth="yes"/>
      <point x="292.6" y="57.6"/>
      <point x="346.6" y="-3.6"/>
    </contour>
    <contour>
      <point x="375.8" y="431.0" type="line"/>
      <point x="479.0" y="431.0" type="line"/>
      <point x="546.6" y="1555.2" type="line"/>
      <point x="308.8" y="1555.2" type="line"/>
    </contour>
  </outline>
</glyph>
<glyph name="dollar" format="1">
  <advance width="1587.4"/>
  <unicode hex="0024"/>
  <outline>
    <contour>
      <point x="615.2" y="-224.4" type="line"/>
      <point x="747.0" y="-224.4" type="line"/>
      <point x="743.6" y="-52.2" type="line"/>
      <point x="804.6" y="-46.4"/>
      <point x="863.2" y="-35.0"/>
      <point x="917.8" y="-14.8" type="curve" smooth="yes"/>
      <point x="1065.4" y="38.8"/>
      <point x="1196.8" y="148.6"/>
      <point x="1196.8" y="345.4" type="curve" smooth="yes"/>
      <point x="1196.8" y="469.8"/>
      <point x="1152.0" y="544.6"/>
      <point x="1081.6" y="605.6" type="curve" smooth="yes"/>
      <point x="991.6" y="683.8"/>
      <point x="875.0" y="732.0"/>
      <point x="743.6" y="783.2" type="curve"/>
      <point x="745.6" y="1349.0" type="line"/>
      <point x="877.0" y="1345.0"/>
      <point x="980.8" y="1308.6"/>
      <point x="1056.0" y="1241.2" type="curve"/>
      <point x="1108.2" y="1378.0" type="line"/>
      <point x="1022.6" y="1450.8"/>
      <point x="895.2" y="1495.6"/>
      <point x="744.6" y="1498.6" type="curve"/>
      <point x="741.2" y="1644.2" type="line"/>
      <point x="608.8" y="1644.2" type="line"/>
      <point x="613.2" y="1497.0" type="line"/>
      <point x="492.2" y="1487.6"/>
      <point x="389.4" y="1432.6"/>
      <point x="318.6" y="1366.2" type="curve" smooth="yes"/>
      <point x="250.2" y="1301.2"/>
      <point x="188.6" y="1204.8"/>
      <point x="188.6" y="1079.4" type="curve" smooth="yes"/>
      <point x="188.6" y="1019.8"/>
      <point x="200.4" y="969.2"/>
      <point x="222.6" y="926.8" type="curve" smooth="yes"/>
      <point x="298.8" y="785.6"/>
      <point x="459.2" y="721.6"/>
      <point x="613.2" y="652.8" type="curve"/>
      <point x="609.4" y="95.4" type="line"/>
      <point x="491.8" y="100.8"/>
      <point x="389.8" y="145.0"/>
      <point x="310.2" y="198.2" type="curve"/>
      <point x="258.0" y="54.6" type="line"/>
      <point x="353.0" y="-13.8"/>
      <point x="462.2" y="-54.6"/>
      <point x="610.8" y="-57.6" type="curve"/>
    </contour>
    <contour>
      <point x="741.2" y="99.4" type="curve"/>
      <point x="745.6" y="607.0" type="line"/>
      <point x="860.2" y="557.8"/>
      <point x="1005.8" y="501.8"/>
      <point x="1005.8" y="342.4" type="curve" smooth="yes"/>
      <point x="1005.8" y="307.4"/>
      <point x="998.0" y="276.4"/>
      <point x="984.2" y="248.4" type="curve" smooth="yes"/>
      <point x="941.8" y="165.2"/>
      <point x="852.4" y="114.6"/>
    </contour>
    <contour>
      <point x="610.8" y="834.4" type="line"/>
      <point x="496.2" y="877.2"/>
      <point x="390.8" y="936.2"/>
      <point x="390.8" y="1092.6" type="curve" smooth="yes"/>
      <point x="390.8" y="1235.8"/>
      <point x="484.8" y="1326.4"/>
      <point x="613.2" y="1342.6" type="curve"/>
    </contour>
  </outline>
</glyph>
<glyph name="ampersand" format="1">
  <advance width="2148.2"/>
  <unicode hex="0026"/>
  <outline>
    <contour>
      <point x="734.2" y="-35.0" type="curve" smooth="yes"/>
      <point x="983.2" y="-35.0"/>
      <point x="1147.0" y="68.4"/>
      <point x="1274.4" y="192.8" type="curve"/>
      <point x="1370.4" y="100.8"/>
      <point x="1458.0" y="4.4"/>
      <point x="1616.4" y="-19.2" type="curve"/>
      <point x="1758.0" y="85.6" type="line"/>
      <point x="1713.2" y="95.4"/>
      <point x="1673.4" y="105.2"/>
      <point x="1640.0" y="115.6" type="curve" smooth="yes"/>
      <point x="1523.8" y="154.0"/>
      <point x="1454.0" y="216.4"/>
      <point x="1374.8" y="297.6" type="curve"/>
      <point x="1493.8" y="450.2"/>
      <point x="1582.4" y="662.2"/>
      <point x="1591.8" y="917.0" type="curve"/>
      <point x="1413.2" y="939.2" type="line"/>
      <point x="1413.2" y="894.4"/>
      <point x="1409.2" y="849.6"/>
      <point x="1401.4" y="802.4" type="curve" smooth="yes"/>
      <point x="1376.8" y="654.8"/>
      <point x="1322.2" y="521.4"/>
      <point x="1250.8" y="419.6" type="curve"/>
      <point x="807.0" y="872.8" type="line"/>
      <point x="890.6" y="917.6"/>
      <point x="973.8" y="972.6"/>
      <point x="1034.8" y="1039.0" type="curve" smooth="yes"/>
      <point x="1086.4" y="1094.2"/>
      <point x="1135.2" y="1166.0"/>
      <point x="1135.2" y="1264.4" type="curve" smooth="yes"/>
      <point x="1135.2" y="1316.6"/>
      <point x="1124.4" y="1360.4"/>
      <point x="1100.8" y="1399.2" type="curve" smooth="yes"/>
      <point x="1035.8" y="1506.0"/>
      <point x="904.4" y="1569.4"/>
      <point x="734.2" y="1569.4" type="curve" smooth="yes"/>
      <point x="521.2" y="1569.4"/>
      <point x="347.0" y="1471.0"/>
      <point x="347.0" y="1258.4" type="curve" smooth="yes"/>
      <point x="347.0" y="1221.0"/>
      <point x="352.4" y="1186.2"/>
      <point x="364.2" y="1155.2" type="curve" smooth="yes"/>
      <point x="402.6" y="1050.4"/>
      <point x="481.8" y="979.0"/>
      <point x="555.6" y="905.2" type="curve"/>
      <point x="455.2" y="851.6"/>
      <point x="352.0" y="789.6"/>
      <point x="276.2" y="712.4" type="curve" smooth="yes"/>
      <point x="207.4" y="642.6"/>
      <point x="150.2" y="553.4"/>
      <point x="150.2" y="423.6" type="curve" smooth="yes"/>
      <point x="150.2" y="351.2"/>
      <point x="163.6" y="285.8"/>
      <point x="193.6" y="229.2" type="curve" smooth="yes"/>
      <point x="282.6" y="60.0"/>
      <point x="477.4" y="-35.0"/>
    </contour>
    <contour>
      <point x="730.8" y="117.6" type="curve" smooth="yes"/>
      <point x="674.2" y="117.6"/>
      <point x="622.0" y="125.4"/>
      <point x="574.8" y="141.2" type="curve" smooth="yes"/>
      <point x="452.8" y="182.0"/>
      <point x="342.6" y="270.6"/>
      <point x="342.6" y="428.0" type="curve" smooth="yes"/>
      <point x="342.6" y="474.2"/>
      <point x="351.4" y="515.6"/>
      <point x="369.2" y="552.0" type="curve" smooth="yes"/>
      <point x="427.2" y="669.6"/>
      <point x="545.8" y="736.0"/>
      <point x="662.4" y="796.0" type="curve"/>
      <point x="907.8" y="553.4" type="line" smooth="yes"/>
      <point x="981.6" y="479.6"/>
      <point x="1061.4" y="395.0"/>
      <point x="1133.2" y="326.2" type="curve" smooth="yes"/>
      <point x="1147.6" y="312.4"/>
      <point x="1156.8" y="305.0"/>
      <point x="1158.8" y="305.0" type="curve"/>
      <point x="1055.0" y="204.2"/>
      <point x="934.4" y="117.6"/>
    </contour>
    <contour>
      <point x="695.8" y="975.6" type="curve"/>
      <point x="671.2" y="998.2"/>
      <point x="649.2" y="1019.4"/>
      <point x="629.0" y="1040.6" type="curve" smooth="yes"/>
      <point x="580.2" y="1093.2"/>
      <point x="532.0" y="1156.2"/>
      <point x="532.0" y="1253.6" type="curve" smooth="yes"/>
      <point x="532.0" y="1371.2"/>
      <point x="625.0" y="1426.8"/>
      <point x="742.6" y="1426.8" type="curve" smooth="yes"/>
      <point x="857.8" y="1426.8"/>
      <point x="952.6" y="1370.2"/>
      <point x="952.6" y="1253.6" type="curve" smooth="yes"/>
      <point x="952.6" y="1223.6"/>
      <point x="944.8" y="1196.0"/>
      <point x="930.0" y="1169.4" type="curve" smooth="yes"/>
      <point x="881.8" y="1081.8"/>
      <point x="786.8" y="1023.4"/>
    </contour>
  </outline>
</glyph>
<glyph name="plus" format="1">
  <advance width="1775.6"/>
  <unicode hex="002B"/>
  <outline>
    <contour>
      <point x="678.8" y="80.8" type="line"/>
      <point x="838.2" y="80.8" type="line"/>
      <point x="838.2" y="533.0" type="line"/>
      <point x="1320.8" y="533.0" type="line"/>
      <point x="1320.8" y="682.0" type="line"/>
      <point x="840.2" y="682.0" type="line"/>
      <point x="840.2" y="1134.6" type="line"/>
      <point x="681.8" y="1134.6" type="line"/>
      <point x="681.8" y="682.0" type="line"/>
      <point x="199.6" y="682.0" type="line"/>
      <point x="199.6" y="533.0" type="line"/>
      <point x="678.8" y="533.0" type="line"/>
    </contour>
  </outline>
</glyph>
<glyph name="comma" format="1">
  <advance width="704.4"/>
  <unicode hex="002C"/>
  <outline>
    <contour>
      <point x="102.0" y="-334.0" type="line"/>
      <point x="242.2" y="-334.0" type="line"/>
      <point x="416.0" y="161.4" type="line"/>
      <point x="216.2" y="161.4" type="line"/>
    </contour>
  </outline>
</glyph>
<glyph name="period" format="1">
  <advance width="583.2"/>
  <unicode hex="002E"/>
  <outline>
    <contour>
      <point x="278.2" y="-9.6" type="curve" smooth="yes"/>
      <point x="349.0" y="-9.6"/>
      <point x="409.0" y="40.2"/>
      <point x="409.0" y="117.4" type="curve" smooth="yes"/>
      <point x="409.0" y="189.6"/>
      <point x="358.6" y="245.8"/>
      <point x="278.8" y="245.8" type="curve" smooth="yes"/>
      <point x="208.0" y="245.8"/>
      <point x="148.0" y="195.6"/>
      <point x="148.0" y="119.2" type="curve" smooth="yes"/>
      <point x="148.0" y="47.0"/>
      <point x="198.4" y="-9.6"/>
    </contour>
  </outline>
</glyph>
<glyph name="zero" format="1">
  <advance width="1251.8"/>
  <unicode hex="0030"/>
  <outline>
    <contour>
      <point x="623.6" y="165.8" type="curve" smooth="yes"/>
      <point x="381.2" y="165.8"/>
      <point x="309.0" y="435.0"/>
      <point x="309.0" y="729.6" type="curve" smooth="yes"/>
      <point x="309.0" y="1018.8"/>
      <point x="392.0" y="1300.6"/>
      <point x="623.6" y="1300.6" type="curve" smooth="yes"/>
      <point x="864.6" y="1300.6"/>
      <point x="936.0" y="1026.0"/>
      <point x="936.0" y="729.6" type="curve" smooth="yes"/>
      <point x="936.0" y="445.2"/>
      <point x="851.4" y="165.8"/>
    </contour>
    <contour>
      <point x="620.6" y="-12.6" type="curve" smooth="yes"/>
      <point x="986.0" y="-12.6"/>
      <point x="1158.8" y="323.4"/>
      <point x="1158.8" y="729.6" type="curve" smooth="yes"/>
      <point x="1158.8" y="1151.4"/>
      <point x="1004.6" y="1479.4"/>
      <point x="623.6" y="1479.4" type="curve" smooth="yes"/>
      <point x="255.8" y="1479.4"/>
      <point x="89.4" y="1143.0"/>
      <point x="89.4" y="729.6" type="curve" smooth="yes"/>
      <point x="89.4" y="319.8"/>
      <point x="251.0" y="-12.6"/>
    </contour>
  </outline>
</glyph>
<glyph name="one" format="1">
  <advance width="1250.4"/>
  <unicode hex="0031"/>
  <outline>
    <contour>
      <point x="625.6" y="0.0" type="line"/>
      <point x="836.0" y="0.0" type="line"/>
      <point x="836.0" y="1452.8" type="line"/>
      <point x="632.2" y="1452.8" type="line"/>
      <point x="564.6" y="1401.8"/>
      <point x="435.0" y="1323.6"/>
      <point x="319.0" y="1271.0" type="curve"/>
      <point x="367.6" y="1124.0" type="line"/>
      <point x="473.6" y="1168.0"/>
      <point x="559.6" y="1215.6"/>
      <point x="625.6" y="1266.0" type="curve"/>
    </contour>
  </outline>
</glyph>
<glyph name="two" format="1">
  <advance width="1267.2"/>
  <unicode hex="0032"/>
  <outline>
    <contour>
      <point x="163.4" y="0.0" type="line"/>
      <point x="1077.2" y="0.0" type="line"/>
      <point x="1077.2" y="167.0" type="line"/>
      <point x="402.0" y="167.0" type="line"/>
      <point x="463.2" y="223.4"/>
      <point x="681.2" y="416.2"/>
      <point x="742.4" y="476.8" type="curve" smooth="yes"/>
      <point x="896.8" y="624.8"/>
      <point x="1081.8" y="820.0"/>
      <point x="1081.8" y="1048.8" type="curve" smooth="yes"/>
      <point x="1081.8" y="1319.4"/>
      <point x="865.0" y="1477.4"/>
      <point x="613.8" y="1477.4" type="curve" smooth="yes"/>
      <point x="404.4" y="1477.4"/>
      <point x="240.4" y="1382.2"/>
      <point x="157.6" y="1218.8" type="curve"/>
      <point x="282.2" y="1105.8" type="line"/>
      <point x="351.6" y="1222.6"/>
      <point x="454.8" y="1298.2"/>
      <point x="602.4" y="1298.2" type="curve" smooth="yes"/>
      <point x="757.6" y="1298.2"/>
      <point x="871.2" y="1195.6"/>
      <point x="871.2" y="1041.4" type="curve" smooth="yes"/>
      <point x="871.2" y="875.4"/>
      <point x="731.6" y="731.2"/>
      <point x="607.2" y="599.6" type="curve" smooth="yes"/>
      <point x="516.6" y="503.6"/>
      <point x="257.6" y="255.0"/>
      <point x="163.4" y="165.0" type="curve"/>
    </contour>
  </outline>
</glyph>
<glyph name="three" format="1">
  <advance width="1267.2"/>
  <unicode hex="0033"/>
  <outline>
    <contour>
      <point x="611.6" y="-22.0" type="curve" smooth="yes"/>
      <point x="881.6" y="-22.0"/>
      <point x="1116.0" y="114.0"/>
      <point x="1116.0" y="393.8" type="curve" smooth="yes"/>
      <point x="1116.0" y="625.0"/>
      <point x="956.4" y="727.8"/>
      <point x="815.0" y="760.4" type="curve"/>
      <point x="940.0" y="801.8"/>
      <point x="1076.8" y="897.8"/>
      <point x="1076.8" y="1096.8" type="curve" smooth="yes"/>
      <point x="1076.8" y="1352.2"/>
      <point x="855.8" y="1477.8"/>
      <point x="611.6" y="1477.8" type="curve" smooth="yes"/>
      <point x="416.8" y="1477.8"/>
      <point x="242.8" y="1399.4"/>
      <point x="160.2" y="1255.2" type="curve"/>
      <point x="275.0" y="1139.4" type="line"/>
      <point x="344.6" y="1242.4"/>
      <point x="454.4" y="1297.8"/>
      <point x="596.8" y="1297.8" type="curve" smooth="yes"/>
      <point x="745.8" y="1297.8"/>
      <point x="867.2" y="1240.2"/>
      <point x="867.2" y="1084.2" type="curve" smooth="yes"/>
      <point x="867.2" y="876.4"/>
      <point x="691.8" y="835.8"/>
      <point x="505.2" y="835.8" type="curve" smooth="yes"/>
      <point x="441.0" y="835.8" type="line"/>
      <point x="443.0" y="664.4" type="line"/>
      <point x="521.2" y="666.4" type="line" smooth="yes"/>
      <point x="737.0" y="670.6"/>
      <point x="912.4" y="620.0"/>
      <point x="912.4" y="396.8" type="curve" smooth="yes"/>
      <point x="912.4" y="240.4"/>
      <point x="776.4" y="152.0"/>
      <point x="603.2" y="152.0" type="curve" smooth="yes"/>
      <point x="454.6" y="152.0"/>
      <point x="329.2" y="216.8"/>
      <point x="247.0" y="341.6" type="curve"/>
      <point x="158.8" y="207.8" type="line"/>
      <point x="221.2" y="50.6"/>
      <point x="415.0" y="-22.0"/>
    </contour>
  </outline>
</glyph>
<glyph name="four" format="1">
  <advance width="1267.2"/>
  <unicode hex="0034"/>
  <outline>
    <contour>
      <point x="750.0" y="0.0" type="line"/>
      <point x="953.6" y="0.0" type="line"/>
      <point x="953.6" y="339.4" type="line"/>
      <point x="1156.0" y="339.4" type="line"/>
      <point x="1156.0" y="497.8" type="line"/>
      <point x="953.6" y="497.8" type="line"/>
      <point x="953.6" y="1452.8" type="line"/>
      <point x="718.4" y="1452.8" type="line"/>
      <point x="147.8" y="490.2" type="line"/>
      <point x="147.8" y="339.4" type="line"/>
      <point x="750.0" y="339.4" type="line"/>
    </contour>
    <contour>
      <point x="342.4" y="497.8" type="line"/>
      <point x="645.0" y="1015.6" type="line"/>
      <point x="750.0" y="1207.0" type="line"/>
      <point x="750.0" y="497.8" type="line"/>
    </contour>
  </outline>
</glyph>
<glyph name="five" format="1">
  <advance width="1250.4"/>
  <unicode hex="0035"/>
  <outline>
    <contour>
      <point x="186.2" y="167.0" type="line"/>
      <point x="277.0" y="43.4"/>
      <point x="422.2" y="-27.0"/>
      <point x="600.0" y="-26.6" type="curve" smooth="yes"/>
      <point x="883.6" y="-25.4"/>
      <point x="1120.0" y="138.0"/>
      <point x="1120.0" y="442.6" type="curve" smooth="yes"/>
      <point x="1120.0" y="731.0"/>
      <point x="933.0" y="914.2"/>
      <point x="670.2" y="914.6" type="curve" smooth="yes"/>
      <point x="569.6" y="915.0"/>
      <point x="486.6" y="885.8"/>
      <point x="418.4" y="835.8" type="curve"/>
      <point x="432.8" y="1268.6" type="line"/>
      <point x="1032.0" y="1268.6" type="line"/>
      <point x="1032.0" y="1435.2" type="line"/>
      <point x="242.2" y="1435.2" type="line"/>
      <point x="242.2" y="640.8" type="line"/>
      <point x="417.8" y="644.4" type="line"/>
      <point x="471.4" y="710.0"/>
      <point x="551.8" y="748.4"/>
      <point x="642.2" y="748.0" type="curve" smooth="yes"/>
      <point x="802.2" y="747.2"/>
      <point x="916.6" y="640.6"/>
      <point x="916.6" y="445.6" type="curve" smooth="yes"/>
      <point x="916.6" y="284.0"/>
      <point x="795.2" y="145.8"/>
      <point x="596.4" y="146.2" type="curve" smooth="yes"/>
      <point x="466.0" y="146.6"/>
      <point x="357.8" y="208.0"/>
      <point x="270.8" y="314.6" type="curve"/>
    </contour>
  </outline>
</glyph>
<glyph name="six" format="1">
  <advance width="1250.4"/>
  <unicode hex="0036"/>
  <outline>
    <contour>
      <point x="639.4" y="-29.0" type="curve" smooth="yes"/>
      <point x="914.8" y="-29.0"/>
      <point x="1144.0" y="157.0"/>
      <point x="1144.0" y="461.6" type="curve" smooth="yes"/>
      <point x="1144.0" y="731.0"/>
      <point x="960.2" y="940.8"/>
      <point x="667.8" y="940.8" type="curve" smooth="yes"/>
      <point x="559.8" y="940.8"/>
      <point x="394.8" y="889.6"/>
      <point x="338.2" y="798.4" type="curve"/>
      <point x="404.4" y="1090.4"/>
      <point x="603.4" y="1299.2"/>
      <point x="935.6" y="1361.8" type="curve"/>
      <point x="883.2" y="1518.8" type="line"/>
      <point x="258.0" y="1392.2"/>
      <point x="99.4" y="869.2"/>
      <point x="125.0" y="484.2" type="curve" smooth="yes"/>
      <point x="144.0" y="196.0"/>
      <point x="324.0" y="-29.0"/>
    </contour>
    <contour>
      <point x="633.8" y="143.4" type="curve" smooth="yes"/>
      <point x="436.0" y="143.4"/>
      <point x="313.2" y="279.2"/>
      <point x="313.2" y="458.2" type="curve" smooth="yes"/>
      <point x="313.2" y="658.0"/>
      <point x="452.0" y="779.8"/>
      <point x="635.8" y="780.4" type="curve" smooth="yes"/>
      <point x="845.4" y="781.0"/>
      <point x="949.4" y="634.8"/>
      <point x="949.4" y="452.6" type="curve" smooth="yes"/>
      <point x="949.4" y="257.2"/>
      <point x="818.6" y="143.4"/>
    </contour>
  </outline>
</glyph>
<glyph name="seven" format="1">
  <advance width="1250.4"/>
  <unicode hex="0037"/>
  <outline>
    <contour>
      <point x="343.0" y="0.0" type="line"/>
      <point x="563.4" y="0.0" type="line"/>
      <point x="1125.4" y="1311.8" type="line"/>
      <point x="1125.4" y="1438.8" type="line"/>
      <point x="157.4" y="1438.8" type="line"/>
      <point x="157.4" y="1272.2" type="line"/>
      <point x="904.2" y="1272.2" type="line"/>
    </contour>
  </outline>
</glyph>
<glyph name="eight" format="1">
  <advance width="1250.8"/>
  <unicode hex="0038"/>
  <outline>
    <contour>
      <point x="635.6" y="-22.6" type="curve" smooth="yes"/>
      <point x="917.678080616" y="-22.6"/>
      <point x="1139.6" y="97.4"/>
      <point x="1139.6" y="375.8" type="curve" smooth="yes"/>
      <point x="1139.6" y="589.6"/>
      <point x="1004.2" y="710.8"/>
      <point x="840.8" y="763.8" type="curve"/>
      <point x="986.0" y="812.8"/>
      <point x="1104.6" y="925.6"/>
      <point x="1104.6" y="1111.8" type="curve" smooth="yes"/>
      <point x="1104.6" y="1325.4"/>
      <point x="923.2" y="1477.8"/>
      <point x="635.6" y="1477.8" type="curve" smooth="yes"/>
      <point x="384.6" y="1477.8"/>
      <point x="167.0" y="1365.8"/>
      <point x="167.0" y="1111.8" type="curve" smooth="yes"/>
      <point x="167.0" y="921.6"/>
      <point x="284.4" y="812.8"/>
      <point x="429.6" y="763.8" type="curve"/>
      <point x="267.0" y="710.8"/>
      <point x="131.2" y="589.6"/>
      <point x="131.2" y="375.8" type="curve" smooth="yes"/>
      <point x="131.2" y="129.8"/>
      <point x="342.061898529" y="-22.6"/>
    </contour>
    <contour>
      <point x="637.6" y="145.8" type="curve" smooth="yes"/>
      <point x="472.0" y="145.8"/>
      <point x="345.4" y="225.4"/>
      <point x="345.4" y="386.4" type="curve" smooth="yes"/>
      <point x="345.4" y="541.8"/>
      <point x="480.4" y="639.0"/>
      <point x="637.6" y="669.8" type="curve"/>
      <point x="781.8" y="641.0"/>
      <point x="929.0" y="554.6"/>
      <point x="929.0" y="386.4" type="curve" smooth="yes"/>
      <point x="929.0" y="233.4"/>
      <point x="812.117829964" y="145.8"/>
    </contour>
    <contour>
      <point x="637.6" y="849.2" type="curve"/>
      <point x="492.6" y="875.4"/>
      <point x="373.0" y="955.8"/>
      <point x="373.0" y="1107.2" type="curve" smooth="yes"/>
      <point x="373.0" y="1236.6"/>
      <point x="482.8" y="1313.0"/>
      <point x="637.6" y="1313.0" type="curve" smooth="yes"/>
      <point x="781.2" y="1313.0"/>
      <point x="901.0" y="1247.6"/>
      <point x="901.0" y="1107.2" type="curve" smooth="yes"/>
      <point x="901.0" y="955.8"/>
      <point x="781.8" y="875.4"/>
    </contour>
  </outline>
</glyph>
<glyph name="nine" format="1">
  <advance width="1267.2"/>
  <unicode hex="0039"/>
  <outline>
    <contour>
      <point x="556.8" y="-98.4" type="line"/>
      <point x="992.0" y="558.0" type="line" smooth="yes"/>
      <point x="1079.8" y="691.8"/>
      <point x="1146.6" y="860.6"/>
      <point x="1146.6" y="986.2" type="curve" smooth="yes"/>
      <point x="1146.6" y="1269.0"/>
      <point x="948.4" y="1477.8"/>
      <point x="633.0" y="1477.8" type="curve" smooth="yes"/>
      <point x="357.6" y="1477.8"/>
      <point x="123.6" y="1294.4"/>
      <point x="123.6" y="990.6" type="curve" smooth="yes"/>
      <point x="123.6" y="721.6"/>
      <point x="319.2" y="511.4"/>
      <point x="616.0" y="511.4" type="curve" smooth="yes"/>
      <point x="705.2" y="511.4"/>
      <point x="760.6" y="545.4"/>
      <point x="770.2" y="551.4" type="curve"/>
      <point x="392.4" y="-7.6" type="line"/>
    </contour>
    <contour>
      <point x="642.8" y="671.0" type="curve" smooth="yes"/>
      <point x="433.2" y="671.0"/>
      <point x="321.6" y="813.4"/>
      <point x="321.6" y="995.6" type="curve" smooth="yes"/>
      <point x="321.6" y="1195.0"/>
      <point x="459.0" y="1308.8"/>
      <point x="643.8" y="1308.8" type="curve" smooth="yes"/>
      <point x="841.6" y="1308.8"/>
      <point x="958.8" y="1192.4"/>
      <point x="958.8" y="993.6" type="curve" smooth="yes"/>
      <point x="958.8" y="794.2"/>
      <point x="835.2" y="671.0"/>
    </contour>
  </outline>
</glyph>
<glyph name="equal" format="1">
  <advance width="1569.2"/>
  <unicode hex="003D"/>
  <outline>
    <contour>
      <point x="257.6" y="369.4" type="line"/>
      <point x="1304.2" y="369.4" type="line"/>
      <point x="1304.2" y="506.0" type="line"/>
      <point x="257.6" y="506.0" type="line"/>
    </contour>
    <contour>
      <point x="256.6" y="774.2" type="line"/>
      <point x="1303.6" y="774.2" type="line"/>
      <point x="1303.6" y="912.6" type="line"/>
      <point x="256.6" y="912.6" type="line"/>
    </contour>
  </outline>
</glyph>
<glyph name="greater" format="1">
  <advance width="1456.4"/>
  <unicode hex="003E"/>
  <outline>
    <contour>
      <point x="241.8" y="75.6" type="line"/>
      <point x="1250.2" y="521.8" type="line"/>
      <point x="1250.2" y="610.8" type="line"/>
      <point x="247.2" y="1094.0" type="line"/>
      <point x="247.2" y="942.0" type="line"/>
      <point x="1029.6" y="571.8" type="line"/>
      <point x="241.8" y="229.2" type="line"/>
    </contour>
  </outline>
</glyph>
<glyph name="question" format="1">
  <advance width="1099.2"/>
  <unicode hex="003F"/>
  <outline>
    <contour>
      <point x="392.6" y="367.2" type="curve"/>
      <point x="513.2" y="367.2" type="line"/>
      <point x="510.8" y="534.0"/>
      <point x="684.4" y="562.8"/>
      <point x="684.4" y="719.0" type="curve" smooth="yes"/>
      <point x="684.4" y="993.2"/>
      <point x="865.2" y="1060.2"/>
      <point x="777.2" y="1267.8" type="curve" smooth="yes"/>
      <point x="736.0" y="1390.8"/>
      <point x="600.2" y="1469.4"/>
      <point x="388.6" y="1452.2" type="curve" smooth="yes"/>
      <point x="325.0" y="1452.2"/>
      <point x="280.4" y="1367.6"/>
      <point x="232.4" y="1344.2" type="curve"/>
      <point x="262.0" y="1361.0"/>
      <point x="298.4" y="1281.2"/>
      <point x="331.6" y="1281.2" type="curve"/>
      <point x="489.0" y="1342.4"/>
      <point x="749.8" y="1326.6"/>
      <point x="749.8" y="1115.0" type="curve" smooth="yes"/>
      <point x="749.8" y="863.4"/>
      <point x="386.6" y="808.8"/>
      <point x="386.6" y="481.2" type="curve" smooth="yes"/>
      <point x="386.6" y="445.2"/>
      <point x="389.2" y="401.6"/>
    </contour>
    <contour>
      <point x="454.8" y="0.0" type="curve" smooth="yes"/>
      <point x="522.8" y="0.0"/>
      <point x="580.8" y="48.6"/>
      <point x="580.8" y="122.2" type="curve" smooth="yes"/>
      <point x="580.8" y="191.2"/>
      <point x="532.8" y="245.8"/>
      <point x="456.2" y="245.8" type="curve" smooth="yes"/>
      <point x="388.2" y="245.8"/>
      <point x="329.8" y="197.2"/>
      <point x="329.8" y="123.6" type="curve" smooth="yes"/>
      <point x="329.8" y="54.6"/>
      <point x="377.8" y="0.0"/>
    </contour>
  </outline>
</glyph>
<glyph name="at" format="1">
  <advance width="1921.2"/>
  <unicode hex="0040"/>
  <outline>
    <contour>
      <point x="992.4" y="-142.2" type="curve" smooth="yes"/>
      <point x="1225.0" y="-142.2"/>
      <point x="1427.8" y="-68.6"/>
      <point x="1574.6" y="52.8" type="curve"/>
      <point x="1490.6" y="150.4" type="line"/>
      <point x="1361.8" y="58.4"/>
      <point x="1197.8" y="-0.4"/>
      <point x="1007.8" y="-0.4" type="curve" smooth="yes"/>
      <point x="628.0" y="-0.4"/>
      <point x="322.4" y="241.8"/>
      <point x="322.4" y="645.4" type="curve" smooth="yes"/>
      <point x="322.4" y="1040.8"/>
      <point x="635.6" y="1299.8"/>
      <point x="996.6" y="1299.8" type="curve" smooth="yes"/>
      <point x="1328.4" y="1299.8"/>
      <point x="1611.6" y="1102.2"/>
      <point x="1611.6" y="761.2" type="curve" smooth="yes"/>
      <point x="1611.6" y="524.6"/>
      <point x="1491.6" y="331.2"/>
      <point x="1349.2" y="331.2" type="curve" smooth="yes"/>
      <point x="1292.8" y="331.2"/>
      <point x="1263.0" y="364.0"/>
      <point x="1263.0" y="421.6" type="curve" smooth="yes"/>
      <point x="1263.0" y="470.4"/>
      <point x="1317.6" y="692.2"/>
      <point x="1404.0" y="1071.4" type="curve"/>
      <point x="1242.8" y="1071.4" type="line"/>
      <point x="1216.4" y="986.4" type="line"/>
      <point x="1165.8" y="1060.6"/>
      <point x="1082.2" y="1102.4"/>
      <point x="983.8" y="1102.4" type="curve" smooth="yes"/>
      <point x="744.6" y="1102.4"/>
      <point x="513.8" y="854.4"/>
      <point x="513.8" y="583.6" type="curve" smooth="yes"/>
      <point x="513.8" y="392.0"/>
      <point x="628.8" y="222.6"/>
      <point x="829.4" y="222.6" type="curve" smooth="yes"/>
      <point x="941.0" y="222.6"/>
      <point x="1034.4" y="278.6"/>
      <point x="1100.4" y="369.6" type="curve"/>
      <point x="1112.2" y="255.2"/>
      <point x="1202.0" y="203.0"/>
      <point x="1321.0" y="203.0" type="curve" smooth="yes"/>
      <point x="1585.6" y="203.0"/>
      <point x="1783.8" y="457.4"/>
      <point x="1783.8" y="756.2" type="curve" smooth="yes"/>
      <point x="1783.8" y="1187.8"/>
      <point x="1417.4" y="1440.0"/>
      <point x="1000.4" y="1440.0" type="curve" smooth="yes"/>
      <point x="547.4" y="1440.0"/>
      <point x="137.4" y="1148.2"/>
      <point x="137.4" y="644.6" type="curve" smooth="yes"/>
      <point x="137.4" y="164.0"/>
      <point x="525.0" y="-142.2"/>
    </contour>
    <contour>
      <point x="864.0" y="365.8" type="curve" smooth="yes"/>
      <point x="764.4" y="365.8"/>
      <point x="703.2" y="438.2"/>
      <point x="703.2" y="558.4" type="curve" smooth="yes"/>
      <point x="703.2" y="767.0"/>
      <point x="845.2" y="962.2"/>
      <point x="1005.8" y="962.2" type="curve" smooth="yes"/>
      <point x="1101.8" y="962.2"/>
      <point x="1150.4" y="900.4"/>
      <point x="1150.4" y="788.6" type="curve" smooth="yes"/>
      <point x="1150.4" y="562.4"/>
      <point x="1020.6" y="365.8"/>
    </contour>
  </outline>
</glyph>
<glyph name="A" format="1">
  <advance width="1464.6"/>
  <unicode hex="0041"/>
  <outline>
    <contour>
      <point x="38.2" y="0.0" type="line"/>
      <point x="259.4" y="0.0" type="line"/>
      <point x="402.4" y="371.0" type="line"/>
      <point x="1052.6" y="371.0" type="line"/>
      <point x="1195.2" y="0.0" type="line"/>
      <point x="1423.8" y="0.0" type="line"/>
      <point x="836.0" y="1452.8" type="line"/>
      <point x="627.8" y="1452.8" type="line"/>
    </contour>
    <contour>
      <point x="464.4" y="531.8" type="line"/>
      <point x="613.2" y="915.6" type="line"/>
      <point x="727.2" y="1227.2" type="line"/>
      <point x="842.0" y="916.2" type="line"/>
      <point x="991.4" y="531.8" type="line"/>
    </contour>
  </outline>
</glyph>
<glyph name="C" format="1">
  <advance width="1427.0"/>
  <unicode hex="0043"/>
  <outline>
    <contour>
      <point x="849.6" y="-22.0" type="curve" smooth="yes"/>
      <point x="1040.2" y="-22.0"/>
      <point x="1218.4" y="28.2"/>
      <point x="1333.4" y="121.4" type="curve"/>
      <point x="1268.0" y="292.6" type="line"/>
      <point x="1167.8" y="208.2"/>
      <point x="1024.0" y="158.0"/>
      <point x="861.8" y="158.0" type="curve" smooth="yes"/>
      <point x="526.6" y="158.0"/>
      <point x="343.4" y="394.8"/>
      <point x="343.4" y="722.6" type="curve" smooth="yes"/>
      <point x="343.4" y="1058.4"/>
      <point x="537.8" y="1297.8"/>
      <point x="871.8" y="1297.8" type="curve" smooth="yes"/>
      <point x="1004.4" y="1297.8"/>
      <point x="1138.6" y="1247.0"/>
      <point x="1236.4" y="1170.8" type="curve"/>
      <point x="1319.0" y="1327.2" type="line"/>
      <point x="1208.2" y="1412.4"/>
      <point x="1057.2" y="1477.8"/>
      <point x="859.2" y="1477.8" type="curve" smooth="yes"/>
      <point x="416.8" y="1477.8"/>
      <point x="124.8" y="1169.6"/>
      <point x="124.8" y="723.6" type="curve" smooth="yes"/>
      <point x="124.8" y="281.8"/>
      <point x="399.8" y="-22.0"/>
    </contour>
  </outline>
</glyph>
<glyph name="E" format="1">
  <advance width="1217.8"/>
  <unicode hex="0045"/>
  <outline>
    <contour>
      <point x="180.4" y="0.0" type="line"/>
      <point x="1113.4" y="0.0" type="line"/>
      <point x="1113.4" y="168.8" type="line"/>
      <point x="387.2" y="168.8" type="line"/>
      <point x="387.2" y="660.0" type="line"/>
      <point x="1025.4" y="660.0" type="line"/>
      <point x="1025.4" y="826.0" type="line"/>
      <point x="387.2" y="826.0" type="line"/>
      <point x="387.2" y="1284.0" type="line"/>
      <point x="1063.4" y="1284.0" type="line"/>
      <point x="1063.4" y="1452.8" type="line"/>
      <point x="180.4" y="1452.8" type="line"/>
    </contour>
  </outline>
</glyph>
<glyph name="J" format="1">
  <advance width="1097.4"/>
  <unicode hex="004A"/>
  <outline>
    <contour>
      <point x="57.4" y="-114.0" type="line"/>
      <point x="160.6" y="-169.0"/>
      <point x="268.2" y="-198.2"/>
      <point x="368.2" y="-198.2" type="curve" smooth="yes"/>
      <point x="603.0" y="-198.2"/>
      <point x="793.8" y="-39.4"/>
      <point x="793.8" y="318.8" type="curve" smooth="yes"/>
      <point x="793.8" y="1287.6" type="line"/>
      <point x="1065.0" y="1287.6" type="line"/>
      <point x="1065.0" y="1452.8" type="line"/>
      <point x="183.6" y="1452.8" type="line"/>
      <point x="183.6" y="1287.6" type="line"/>
      <point x="587.0" y="1287.6" type="line"/>
      <point x="587.0" y="317.2" type="line" smooth="yes"/>
      <point x="587.0" y="89.2"/>
      <point x="499.6" y="-14.6"/>
      <point x="353.6" y="-14.6" type="curve" smooth="yes"/>
      <point x="286.8" y="-14.6"/>
      <point x="206.8" y="7.2"/>
      <point x="117.4" y="49.2" type="curve"/>
    </contour>
  </outline>
</glyph>
<glyph name="O" format="1">
  <advance width="1696.4"/>
  <unicode hex="004F"/>
  <outline>
    <contour>
      <point x="848.0" y="156.2" type="curve" smooth="yes"/>
      <point x="571.2" y="156.2"/>
      <point x="344.4" y="361.2"/>
      <point x="344.4" y="727.0" type="curve" smooth="yes"/>
      <point x="344.4" y="1095.2"/>
      <point x="571.2" y="1297.8"/>
      <point x="848.0" y="1297.8" type="curve" smooth="yes"/>
      <point x="1124.8" y="1297.8"/>
      <point x="1352.0" y="1095.2"/>
      <point x="1352.0" y="727.0" type="curve" smooth="yes"/>
      <point x="1352.0" y="361.2"/>
      <point x="1124.8" y="156.2"/>
    </contour>
    <contour>
      <point x="848.0" y="-23.8" type="curve" smooth="yes"/>
      <point x="1308.0" y="-23.8"/>
      <point x="1571.6" y="312.0"/>
      <point x="1571.6" y="727.2" type="curve" smooth="yes"/>
      <point x="1571.6" y="1144.4"/>
      <point x="1308.0" y="1477.8"/>
      <point x="848.0" y="1477.8" type="curve" smooth="yes"/>
      <point x="388.0" y="1477.8"/>
      <point x="124.8" y="1144.4"/>
      <point x="124.8" y="727.2" type="curve" smooth="yes"/>
      <point x="124.8" y="312.0"/>
      <point x="388.0" y="-23.8"/>
    </contour>
  </outline>
</glyph>
<glyph name="P" format="1">
  <advance width="1282.2"/>
  <unicode hex="0050"/>
  <outline>
    <contour>
      <point x="180.4" y="0.0" type="line"/>
      <point x="390.0" y="0.0" type="line"/>
      <point x="390.0" y="565.8" type="line"/>
      <point x="620.8" y="565.8" type="line" smooth="yes"/>
      <point x="1023.8" y="565.8"/>
      <point x="1216.6" y="710.4"/>
      <point x="1216.6" y="1013.2" type="curve" smooth="yes"/>
      <point x="1216.6" y="1316.0"/>
      <point x="1034.6" y="1452.8"/>
      <point x="595.8" y="1452.8" type="curve" smooth="yes"/>
      <point x="180.4" y="1452.8" type="line"/>
    </contour>
    <contour>
      <point x="390.0" y="736.4" type="line"/>
      <point x="390.0" y="1284.0" type="line"/>
      <point x="619.8" y="1284.0" type="line" smooth="yes"/>
      <point x="891.6" y="1284.0"/>
      <point x="999.0" y="1200.2"/>
      <point x="999.0" y="1011.2" type="curve" smooth="yes"/>
      <point x="999.0" y="825.2"/>
      <point x="882.4" y="736.4"/>
      <point x="639.8" y="736.4" type="curve" smooth="yes"/>
    </contour>
  </outline>
</glyph>
<glyph name="Q" format="1">
  <advance width="1696.4"/>
  <unicode hex="0051"/>
  <outline>
    <contour>
      <point x="1242.2" y="-423.2" type="curve"/>
      <point x="1382.2" y="-289.6" type="line"/>
      <point x="1284.6" y="-198.6"/>
      <point x="1196.6" y="-95.6"/>
      <point x="1133.6" y="34.0" type="curve"/>
      <point x="941.0" y="-15.0" type="line"/>
      <point x="1017.0" y="-177.6"/>
      <point x="1126.0" y="-306.6"/>
    </contour>
    <component base="O"/>
  </outline>
</glyph>
<glyph name="R" format="1">
  <advance width="1350.8"/>
  <unicode hex="0052"/>
  <outline>
    <contour>
      <point x="180.4" y="0.0" type="line"/>
      <point x="387.2" y="0.0" type="line"/>
      <point x="387.2" y="646.4" type="line"/>
      <point x="628.4" y="646.4" type="line" smooth="yes"/>
      <point x="795.2" y="646.4"/>
      <point x="855.2" y="566.8"/>
      <point x="907.4" y="418.2" type="curve" smooth="yes"/>
      <point x="1056.0" y="0.0" type="line"/>
      <point x="1279.6" y="0.0" type="line"/>
      <point x="1124.6" y="409.2" type="line" smooth="yes"/>
      <point x="1068.2" y="560.4"/>
      <point x="1021.6" y="666.0"/>
      <point x="892.8" y="708.6" type="curve"/>
      <point x="1084.4" y="758.4"/>
      <point x="1199.6" y="871.4"/>
      <point x="1199.6" y="1072.0" type="curve" smooth="yes"/>
      <point x="1199.6" y="1380.0"/>
      <point x="947.4" y="1452.8"/>
      <point x="582.4" y="1452.8" type="curve" smooth="yes"/>
      <point x="180.4" y="1452.8" type="line"/>
    </contour>
    <contour>
      <point x="387.2" y="807.8" type="line"/>
      <point x="387.2" y="1284.0" type="line"/>
      <point x="647.4" y="1284.0" type="line" smooth="yes"/>
      <point x="856.4" y="1284.0"/>
      <point x="990.0" y="1242.2"/>
      <point x="990.0" y="1056.4" type="curve" smooth="yes"/>
      <point x="990.0" y="870.2"/>
      <point x="845.0" y="807.8"/>
      <point x="636.8" y="807.8" type="curve" smooth="yes"/>
    </contour>
  </outline>
</glyph>
<glyph name="T" format="1">
  <advance width="1186.2"/>
  <unicode hex="0054"/>
  <outline>
    <contour>
      <point x="489.0" y="0.0" type="line"/>
      <point x="695.4" y="0.0" type="line"/>
      <point x="695.4" y="1284.0" type="line"/>
      <point x="1149.4" y="1284.0" type="line"/>
      <point x="1149.4" y="1452.8" type="line"/>
      <point x="37.2" y="1452.8" type="line"/>
      <point x="37.2" y="1284.0" type="line"/>
      <point x="489.0" y="1284.0" type="line"/>
    </contour>
  </outline>
</glyph>
<glyph name="V" format="1">
  <advance width="1359.2"/>
  <unicode hex="0056"/>
  <outline>
    <contour>
      <point x="573.0" y="0.6" type="line"/>
      <point x="795.8" y="0.6" type="line"/>
      <point x="1350.8" y="1452.8" type="line"/>
      <point x="1127.4" y="1452.8" type="line"/>
      <point x="755.2" y="446.0" type="line"/>
      <point x="683.6" y="239.6" type="line"/>
      <point x="610.0" y="447.0" type="line"/>
      <point x="231.8" y="1452.8" type="line"/>
      <point x="9.0" y="1452.8" type="line"/>
    </contour>
  </outline>
</glyph>
<glyph name="Z" format="1">
  <advance width="1249.6"/>
  <unicode hex="005A"/>
  <outline>
    <contour>
      <point x="95.2" y="0.0" type="line"/>
      <point x="1160.4" y="0.0" type="line"/>
      <point x="1160.4" y="168.8" type="line"/>
      <point x="352.0" y="168.8" type="line"/>
      <point x="1168.4" y="1328.0" type="line"/>
      <point x="1168.4" y="1452.8" type="line"/>
      <point x="126.8" y="1452.8" type="line"/>
      <point x="126.8" y="1284.0" type="line"/>
      <point x="910.4" y="1284.0" type="line"/>
      <point x="95.2" y="134.4" type="line"/>
    </contour>
  </outline>
</glyph>
<glyph name="asciicircum" format="1">
  <advance width="1376.6"/>
  <unicode hex="005E"/>
  <outline>
    <contour>
      <point x="148.4" y="558.0" type="line"/>
      <point x="324.4" y="558.0" type="line"/>
      <point x="677.2" y="1226.4" type="line"/>
      <point x="1042.8" y="558.0" type="line"/>
      <point x="1217.4" y="558.0" type="line"/>
      <point x="729.6" y="1438.4" type="line"/>
      <point x="628.6" y="1438.4" type="line"/>
    </contour>
  </outline>
</glyph>
<glyph name="grave" format="1">
  <advance width="773.4"/>
  <unicode hex="0060"/>
  <outline>
    <contour>
      <point x="290.2" y="1528.8" type="line"/>
      <point x="443.2" y="1528.8" type="line"/>
      <point x="196.6" y="1848.0" type="line"/>
      <point x="-41.0" y="1848.0" type="line"/>
    </contour>
  </outline>
</glyph>
<glyph name="a" format="1">
  <advance width="1237.4"/>
  <unicode hex="0061"/>
  <outline>
    <contour>
      <point x="517.2" y="-22.0" type="curve" smooth="yes"/>
      <point x="668.0" y="-22.0"/>
      <point x="814.8" y="53.8"/>
      <point x="877.2" y="163.6" type="curve"/>
      <point x="901.8" y="64.0"/>
      <point x="1005.2" y="-5.6"/>
      <point x="1133.6" y="-5.6" type="curve"/>
      <point x="1185.6" y="162.6" type="line"/>
      <point x="1103.0" y="162.6"/>
      <point x="1043.4" y="220.8"/>
      <point x="1043.4" y="304.8" type="curve" smooth="yes"/>
      <point x="1043.4" y="939.6" type="line"/>
      <point x="957.0" y="993.6"/>
      <point x="805.2" y="1035.2"/>
      <point x="669.6" y="1035.2" type="curve" smooth="yes"/>
      <point x="325.6" y="1035.2"/>
      <point x="91.6" y="790.8"/>
      <point x="91.6" y="432.8" type="curve" smooth="yes"/>
      <point x="91.6" y="162.8"/>
      <point x="262.0" y="-22.0"/>
    </contour>
    <contour>
      <point x="539.8" y="139.2" type="curve" smooth="yes"/>
      <point x="392.8" y="139.2"/>
      <point x="292.8" y="262.2"/>
      <point x="292.8" y="442.4" type="curve" smooth="yes"/>
      <point x="292.8" y="697.4"/>
      <point x="442.6" y="872.2"/>
      <point x="662.6" y="872.2" type="curve" smooth="yes"/>
      <point x="731.4" y="872.2"/>
      <point x="806.6" y="858.2"/>
      <point x="848.2" y="836.8" type="curve"/>
      <point x="848.2" y="439.4" type="line" smooth="yes"/>
      <point x="848.2" y="267.0"/>
      <point x="723.6" y="139.2"/>
    </contour>
  </outline>
</glyph>
<glyph name="b" format="1">
  <advance width="1254.8"/>
  <unicode hex="0062"/>
  <outline>
    <contour>
      <point x="646.4" y="-22.0" type="curve" smooth="yes"/>
      <point x="963.0" y="-22.0"/>
      <point x="1162.4" y="208.2"/>
      <point x="1162.4" y="538.2" type="curve" smooth="yes"/>
      <point x="1162.4" y="846.2"/>
      <point x="974.0" y="1033.4"/>
      <point x="732.8" y="1033.4" type="curve" smooth="yes"/>
      <point x="594.8" y="1033.4"/>
      <point x="451.2" y="969.2"/>
      <point x="354.2" y="848.2" type="curve"/>
      <point x="354.2" y="1535.0" type="line"/>
      <point x="157.6" y="1505.4" type="line"/>
      <point x="157.6" y="70.2" type="line"/>
      <point x="158.0" y="70.2"/>
      <point x="373.8" y="-22.0"/>
    </contour>
    <contour>
      <point x="641.4" y="139.2" type="curve" smooth="yes"/>
      <point x="485.4" y="139.2"/>
      <point x="354.2" y="176.0"/>
      <point x="354.2" y="176.0" type="curve"/>
      <point x="354.2" y="654.4" type="line"/>
      <point x="452.2" y="791.6"/>
      <point x="586.0" y="870.4"/>
      <point x="702.4" y="870.4" type="curve" smooth="yes"/>
      <point x="851.2" y="870.4"/>
      <point x="960.8" y="752.4"/>
      <point x="960.8" y="539.6" type="curve" smooth="yes"/>
      <point x="960.8" y="317.0"/>
      <point x="852.4" y="139.2"/>
    </contour>
  </outline>
</glyph>
<glyph name="c" format="1">
  <advance width="1084.8"/>
  <unicode hex="0063"/>
  <outline>
    <contour>
      <point x="639.6" y="-22.6" type="curve" smooth="yes"/>
      <point x="771.4" y="-22.6"/>
      <point x="912.8" y="20.0"/>
      <point x="1024.2" y="108.8" type="curve"/>
      <point x="958.8" y="258.8" type="line"/>
      <point x="881.0" y="187.6"/>
      <point x="771.0" y="141.0"/>
      <point x="657.0" y="141.0" type="curve" smooth="yes"/>
      <point x="454.8" y="141.0"/>
      <point x="297.6" y="276.2"/>
      <point x="297.6" y="504.8" type="curve" smooth="yes"/>
      <point x="297.6" y="728.4"/>
      <point x="462.2" y="869.6"/>
      <point x="660.4" y="869.6" type="curve" smooth="yes"/>
      <point x="749.8" y="869.6"/>
      <point x="845.2" y="837.8"/>
      <point x="929.8" y="769.8" type="curve"/>
      <point x="994.2" y="914.4" type="line"/>
      <point x="893.6" y="1001.8"/>
      <point x="762.6" y="1036.4"/>
      <point x="643.6" y="1036.4" type="curve" smooth="yes"/>
      <point x="356.8" y="1036.4"/>
      <point x="96.0" y="829.6"/>
      <point x="96.0" y="501.4" type="curve" smooth="yes"/>
      <point x="96.0" y="189.8"/>
      <point x="327.4" y="-22.6"/>
    </contour>
  </outline>
</glyph>
<glyph name="d" format="1">
  <advance width="1279.6"/>
  <unicode hex="0064"/>
  <outline>
    <contour>
      <point x="571.0" y="-22.0" type="curve" smooth="yes"/>
      <point x="728.4" y="-22.0"/>
      <point x="861.4" y="49.2"/>
      <point x="918.6" y="164.2" type="curve"/>
      <point x="925.0" y="107.0"/>
      <point x="957.8" y="34.8"/>
      <point x="994.2" y="-13.4" type="curve"/>
      <point x="1184.2" y="17.6" type="line"/>
      <point x="1138.4" y="84.0"/>
      <point x="1101.0" y="193.6"/>
      <point x="1101.0" y="389.6" type="curve" smooth="yes"/>
      <point x="1101.0" y="1533.2" type="line"/>
      <point x="904.4" y="1516.0" type="line"/>
      <point x="904.4" y="921.8" type="line"/>
      <point x="810.0" y="999.4"/>
      <point x="706.6" y="1035.2"/>
      <point x="586.6" y="1035.2" type="curve" smooth="yes"/>
      <point x="274.8" y="1035.2"/>
      <point x="93.2" y="808.0"/>
      <point x="93.2" y="495.0" type="curve" smooth="yes"/>
      <point x="93.2" y="184.4"/>
      <point x="284.4" y="-22.0"/>
    </contour>
    <contour>
      <point x="590.2" y="139.2" type="curve" smooth="yes"/>
      <point x="415.0" y="139.2"/>
      <point x="294.8" y="284.8"/>
      <point x="294.8" y="501.0" type="curve" smooth="yes"/>
      <point x="294.8" y="714.8"/>
      <point x="401.8" y="872.2"/>
      <point x="608.2" y="872.2" type="curve" smooth="yes"/>
      <point x="721.2" y="872.2"/>
      <point x="840.8" y="817.6"/>
      <point x="905.0" y="732.0" type="curve"/>
      <point x="905.0" y="527.6" type="line" smooth="yes"/>
      <point x="905.0" y="302.8"/>
      <point x="802.8" y="139.2"/>
    </contour>
  </outline>
</glyph>
<glyph name="e" format="1">
  <advance width="1104.0"/>
  <unicode hex="0065"/>
  <outline>
    <contour>
      <point x="632.2" y="-22.0" type="curve" smooth="yes"/>
      <point x="789.0" y="-22.0"/>
      <point x="950.6" y="43.0"/>
      <point x="1055.8" y="144.4" type="curve"/>
      <point x="970.8" y="276.0" type="line"/>
      <point x="895.4" y="196.4"/>
      <point x="765.6" y="139.2"/>
      <point x="633.8" y="139.2" type="curve" smooth="yes"/>
      <point x="491.4" y="139.2"/>
      <point x="356.6" y="227.8"/>
      <point x="316.6" y="361.4" type="curve"/>
      <point x="716.6" y="393.8"/>
      <point x="987.2" y="504.4"/>
      <point x="987.2" y="742.2" type="curve" smooth="yes"/>
      <point x="987.2" y="911.2"/>
      <point x="848.4" y="1035.2"/>
      <point x="626.8" y="1035.2" type="curve" smooth="yes"/>
      <point x="303.0" y="1035.2"/>
      <point x="92.4" y="794.6"/>
      <point x="92.4" y="509.2" type="curve" smooth="yes"/>
      <point x="92.4" y="186.2"/>
      <point x="316.2" y="-22.0"/>
    </contour>
    <contour>
      <point x="299.8" y="501.2" type="curve"/>
      <point x="298.6" y="510.8"/>
      <point x="298.0" y="525.8"/>
      <point x="298.0" y="534.2" type="curve" smooth="yes"/>
      <point x="300.0" y="755.2"/>
      <point x="460.2" y="876.6"/>
      <point x="623.4" y="876.6" type="curve" smooth="yes"/>
      <point x="730.4" y="876.6"/>
      <point x="794.6" y="822.4"/>
      <point x="794.6" y="741.8" type="curve" smooth="yes"/>
      <point x="794.6" y="599.6"/>
      <point x="599.0" y="527.6"/>
    </contour>
  </outline>
</glyph>
<glyph name="f" format="1">
  <advance width="741.4"/>
  <unicode hex="0066"/>
  <outline>
    <contour>
      <point x="108.2" y="-398.0" type="line"/>
      <point x="365.6" y="-398.0"/>
      <point x="464.2" y="-277.8"/>
      <point x="464.2" y="-11.0" type="curve" smooth="yes"/>
      <point x="464.2" y="889.0" type="line"/>
      <point x="697.8" y="889.0" type="line"/>
      <point x="697.8" y="1014.0" type="line"/>
      <point x="464.2" y="1014.0" type="line"/>
      <point x="464.2" y="1148.6" type="line" smooth="yes"/>
      <point x="464.2" y="1299.2"/>
      <point x="522.2" y="1359.0"/>
      <point x="634.0" y="1359.0" type="curve" smooth="yes"/>
      <point x="666.4" y="1359.0"/>
      <point x="700.8" y="1353.4"/>
      <point x="735.8" y="1344.4" type="curve"/>
      <point x="759.8" y="1474.2" type="line"/>
      <point x="700.2" y="1495.8"/>
      <point x="633.0" y="1507.2"/>
      <point x="577.4" y="1507.2" type="curve" smooth="yes"/>
      <point x="382.6" y="1507.2"/>
      <point x="268.6" y="1396.2"/>
      <point x="268.6" y="1148.8" type="curve" smooth="yes"/>
      <point x="268.6" y="1014.0" type="line"/>
      <point x="69.0" y="1014.0" type="line"/>
      <point x="69.0" y="889.0" type="line"/>
      <point x="268.6" y="889.0" type="line"/>
      <point x="268.6" y="-28.0" type="line" smooth="yes"/>
      <point x="268.6" y="-178.4"/>
      <point x="228.0" y="-246.6"/>
      <point x="87.2" y="-246.6" type="curve"/>
    </contour>
  </outline>
</glyph>
<glyph name="g" format="1">
  <advance width="1175.0"/>
  <unicode hex="0067"/>
  <outline>
    <contour>
      <point x="520.6" y="-513.6" type="curve" smooth="yes"/>
      <point x="834.8" y="-513.6"/>
      <point x="1044.6" y="-315.2"/>
      <point x="1044.6" y="-16.6" type="curve" smooth="yes"/>
      <point x="1044.6" y="939.6" type="line"/>
      <point x="958.2" y="993.6"/>
      <point x="806.4" y="1035.2"/>
      <point x="670.8" y="1035.2" type="curve" smooth="yes"/>
      <point x="326.8" y="1035.2"/>
      <point x="92.4" y="790.4"/>
      <point x="92.4" y="432.4" type="curve" smooth="yes"/>
      <point x="92.4" y="162.4"/>
      <point x="263.2" y="-22.0"/>
      <point x="518.4" y="-22.0" type="curve" smooth="yes"/>
      <point x="646.0" y="-22.0"/>
      <point x="770.8" y="32.6"/>
      <point x="843.4" y="115.8" type="curve"/>
      <point x="843.4" y="-32.4" type="line" smooth="yes"/>
      <point x="843.4" y="-220.0"/>
      <point x="704.0" y="-345.4"/>
      <point x="494.6" y="-345.4" type="curve" smooth="yes"/>
      <point x="405.6" y="-345.4"/>
      <point x="287.6" y="-315.6"/>
      <point x="200.0" y="-272.0" type="curve"/>
      <point x="169.8" y="-443.8" type="line"/>
      <point x="271.2" y="-486.4"/>
      <point x="411.6" y="-513.6"/>
    </contour>
    <contour>
      <point x="541.0" y="139.2" type="curve" smooth="yes"/>
      <point x="394.0" y="139.2"/>
      <point x="294.0" y="262.2"/>
      <point x="294.0" y="442.4" type="curve" smooth="yes"/>
      <point x="294.0" y="697.4"/>
      <point x="443.8" y="872.2"/>
      <point x="663.8" y="872.2" type="curve" smooth="yes"/>
      <point x="732.6" y="872.2"/>
      <point x="807.8" y="859.4"/>
      <point x="849.4" y="838.0" type="curve"/>
      <point x="849.4" y="439.4" type="line" smooth="yes"/>
      <point x="849.4" y="267.0"/>
      <point x="724.8" y="139.2"/>
    </contour>
  </outline>
</glyph>
<glyph name="h" format="1">
  <advance width="1264.4"/>
  <unicode hex="0068"/>
  <outline>
    <contour>
      <point x="1172.0" y="-26.6" type="curve"/>
      <point x="1191.6" y="133.0" type="line"/>
      <point x="1068.0" y="111.4"/>
      <point x="1068.6" y="178.2"/>
      <point x="1069.2" y="319.6" type="curve" smooth="yes"/>
      <point x="1070.4" y="567.8" type="line" smooth="yes"/>
      <point x="1072.2" y="877.4"/>
      <point x="937.6" y="1035.2"/>
      <point x="701.6" y="1035.2" type="curve" smooth="yes"/>
      <point x="570.0" y="1035.2"/>
      <point x="434.8" y="978.8"/>
      <point x="359.6" y="886.6" type="curve"/>
      <point x="359.6" y="1534.0" type="line"/>
      <point x="161.6" y="1509.2" type="line"/>
      <point x="161.6" y="0.0" type="line"/>
      <point x="359.6" y="0.0" type="line"/>
      <point x="359.6" y="546.4" type="line" smooth="yes"/>
      <point x="359.6" y="751.4"/>
      <point x="498.6" y="865.8"/>
      <point x="661.4" y="865.8" type="curve" smooth="yes"/>
      <point x="810.6" y="865.8"/>
      <point x="874.6" y="763.2"/>
      <point x="874.6" y="556.8" type="curve"/>
      <point x="873.4" y="260.4" type="line" smooth="yes"/>
      <point x="872.2" y="39.2"/>
      <point x="935.2" y="-66.6"/>
    </contour>
  </outline>
</glyph>
<glyph name="i" format="1">
  <advance width="658.2"/>
  <unicode hex="0069"/>
  <outline>
    <contour>
      <point x="662.6" y="30.8" type="curve"/>
      <point x="636.4" y="175.8" type="line"/>
      <point x="498.4" y="126.8"/>
      <point x="363.8" y="109.6"/>
      <point x="363.8" y="295.8" type="curve" smooth="yes"/>
      <point x="363.8" y="1014.0" type="line"/>
      <point x="167.8" y="1014.0" type="line"/>
      <point x="167.8" y="268.0" type="line" smooth="yes"/>
      <point x="167.8" y="-20.2"/>
      <point x="431.4" y="-67.4"/>
    </contour>
    <contour>
      <point x="268.6" y="1217.4" type="curve" smooth="yes"/>
      <point x="340.6" y="1217.4"/>
      <point x="401.0" y="1262.4"/>
      <point x="401.0" y="1338.4" type="curve" smooth="yes"/>
      <point x="401.0" y="1414.4"/>
      <point x="341.2" y="1460.8"/>
      <point x="270.0" y="1460.8" type="curve" smooth="yes"/>
      <point x="197.6" y="1460.8"/>
      <point x="137.6" y="1415.8"/>
      <point x="137.6" y="1339.4" type="curve" smooth="yes"/>
      <point x="137.6" y="1263.0"/>
      <point x="197.0" y="1217.4"/>
    </contour>
  </outline>
</glyph>
<glyph name="j" format="1">
  <advance width="601.4"/>
  <unicode hex="006A"/>
  <outline>
    <contour>
      <point x="65.4" y="-477.0" type="curve" smooth="yes"/>
      <point x="285.6" y="-477.0"/>
      <point x="425.0" y="-333.6"/>
      <point x="425.0" y="1.8" type="curve" smooth="yes"/>
      <point x="425.0" y="1014.0" type="line"/>
      <point x="229.0" y="1014.0" type="line"/>
      <point x="229.0" y="-4.6" type="line" smooth="yes"/>
      <point x="229.0" y="-234.6"/>
      <point x="150.0" y="-316.8"/>
      <point x="35.4" y="-316.8" type="curve" smooth="yes"/>
      <point x="8.2" y="-316.8"/>
      <point x="-33.6" y="-309.2"/>
      <point x="-86.2" y="-296.6" type="curve"/>
      <point x="-110.8" y="-451.0" type="line"/>
      <point x="-48.0" y="-467.8"/>
      <point x="10.4" y="-477.0"/>
    </contour>
    <contour>
      <point x="322.4" y="1214.6" type="curve" smooth="yes"/>
      <point x="394.8" y="1214.6"/>
      <point x="455.2" y="1260.0"/>
      <point x="455.2" y="1335.6" type="curve" smooth="yes"/>
      <point x="455.2" y="1412.4"/>
      <point x="395.4" y="1458.8"/>
      <point x="323.8" y="1458.8" type="curve" smooth="yes"/>
      <point x="251.8" y="1458.8"/>
      <point x="191.4" y="1413.0"/>
      <point x="191.4" y="1336.6" type="curve" smooth="yes"/>
      <point x="191.4" y="1261.0"/>
      <point x="251.2" y="1214.6"/>
    </contour>
  </outline>
</glyph>
<glyph name="k" format="1">
  <advance width="1153.4"/>
  <unicode hex="006B"/>
  <outline>
    <contour>
      <point x="1080.0" y="-48.2" type="curve"/>
      <point x="1179.4" y="103.8" type="line"/>
      <point x="1067.6" y="104.4"/>
      <point x="992.8" y="166.0"/>
      <point x="912.2" y="277.2" type="curve" smooth="yes"/>
      <point x="725.2" y="542.8" type="line"/>
      <point x="1027.4" y="961.2" type="line"/>
      <point x="845.2" y="1010.4" type="line"/>
      <point x="354.4" y="326.0" type="line"/>
      <point x="354.4" y="1528.8" type="line"/>
      <point x="159.2" y="1502.8" type="line"/>
      <point x="159.2" y="71.2" type="line" smooth="yes"/>
      <point x="159.2" y="-32.0"/>
      <point x="272.2" y="-56.2"/>
      <point x="337.0" y="24.6" type="curve"/>
      <point x="610.0" y="397.6" type="line"/>
      <point x="770.6" y="161.8" type="line" smooth="yes"/>
      <point x="862.2" y="30.2"/>
      <point x="977.2" y="-36.8"/>
    </contour>
  </outline>
</glyph>
<glyph name="m" format="1">
  <advance width="1957.8"/>
  <unicode hex="006D"/>
  <outline>
    <contour>
      <point x="1891.0" y="-11.4" type="curve"/>
      <point x="1910.2" y="148.2" type="line"/>
      <point x="1780.6" y="139.2"/>
      <point x="1764.4" y="205.4"/>
      <point x="1765.0" y="346.8" type="curve" smooth="yes"/>
      <point x="1765.0" y="567.8" type="line" smooth="yes"/>
      <point x="1766.8" y="877.4"/>
      <point x="1623.0" y="1035.2"/>
      <point x="1387.0" y="1035.2" type="curve" smooth="yes"/>
      <point x="1260.4" y="1035.2"/>
      <point x="1102.4" y="981.6"/>
      <point x="1024.4" y="828.2" type="curve"/>
      <point x="968.2" y="965.0"/>
      <point x="855.8" y="1035.2"/>
      <point x="702.4" y="1035.2" type="curve" smooth="yes"/>
      <point x="561.8" y="1035.2"/>
      <point x="430.4" y="974.2"/>
      <point x="351.2" y="859.8" type="curve"/>
      <point x="340.0" y="919.0"/>
      <point x="294.6" y="981.0"/>
      <point x="256.4" y="1012.8" type="curve"/>
      <point x="75.2" y="928.0" type="line"/>
      <point x="132.0" y="869.4"/>
      <point x="184.6" y="773.4"/>
      <point x="184.6" y="663.4" type="curve" smooth="yes"/>
      <point x="184.6" y="0.0" type="line"/>
      <point x="382.6" y="0.0" type="line"/>
      <point x="382.6" y="567.0" type="line"/>
      <point x="391.6" y="772.8"/>
      <point x="528.4" y="865.8"/>
      <point x="670.2" y="865.8" type="curve" smooth="yes"/>
      <point x="810.6" y="865.8"/>
      <point x="879.2" y="771.2"/>
      <point x="879.2" y="556.8" type="curve" smooth="yes"/>
      <point x="879.2" y="0.0" type="line"/>
      <point x="1075.0" y="0.0" type="line"/>
      <point x="1075.0" y="548.0" type="line"/>
      <point x="1075.0" y="765.0"/>
      <point x="1223.6" y="865.8"/>
      <point x="1360.8" y="865.8" type="curve" smooth="yes"/>
      <point x="1509.2" y="865.8"/>
      <point x="1569.2" y="763.2"/>
      <point x="1569.2" y="556.8" type="curve" smooth="yes"/>
      <point x="1569.2" y="287.6" type="line" smooth="yes"/>
      <point x="1568.0" y="66.4"/>
      <point x="1653.8" y="-39.4"/>
    </contour>
  </outline>
</glyph>
<glyph name="n" format="1">
  <advance width="1285.0"/>
  <unicode hex="006E"/>
  <outline>
    <contour>
      <point x="1239.8" y="138.0" type="line"/>
      <point x="1231.4" y="137.2"/>
      <point x="1224.2" y="136.8"/>
      <point x="1217.0" y="136.8" type="curve" smooth="yes"/>
      <point x="1119.2" y="136.8"/>
      <point x="1090.0" y="185.0"/>
      <point x="1090.0" y="330.0" type="curve" smooth="yes"/>
      <point x="1090.0" y="579.2" type="line" smooth="yes"/>
      <point x="1090.0" y="888.8"/>
      <point x="946.0" y="1035.2"/>
      <point x="710.0" y="1035.2" type="curve" smooth="yes"/>
      <point x="561.4" y="1035.2"/>
      <point x="429.4" y="968.6"/>
      <point x="363.0" y="863.0" type="curve"/>
      <point x="350.2" y="917.8"/>
      <point x="305.8" y="981.6"/>
      <point x="267.0" y="1012.8" type="curve"/>
      <point x="87.0" y="928.0" type="line"/>
      <point x="140.2" y="873.6"/>
      <point x="196.4" y="773.4"/>
      <point x="196.4" y="663.4" type="curve" smooth="yes"/>
      <point x="196.4" y="0.0" type="line"/>
      <point x="394.4" y="0.0" type="line"/>
      <point x="394.4" y="567.0" type="line"/>
      <point x="403.4" y="772.8"/>
      <point x="541.0" y="865.8"/>
      <point x="674.8" y="865.8" type="curve" smooth="yes"/>
      <point x="815.2" y="865.8"/>
      <point x="894.8" y="771.6"/>
      <point x="894.8" y="565.2" type="curve" smooth="yes"/>
      <point x="894.8" y="303.6" type="line" smooth="yes"/>
      <point x="894.8" y="101.2"/>
      <point x="952.0" y="-18.8"/>
      <point x="1156.0" y="-18.8" type="curve" smooth="yes"/>
      <point x="1175.6" y="-18.8"/>
      <point x="1196.8" y="-17.2"/>
      <point x="1220.6" y="-13.4" type="curve"/>
    </contour>
  </outline>
</glyph>
<glyph name="o" format="1">
  <advance width="1252.8"/>
  <unicode hex="006F"/>
  <outline>
    <contour>
      <point x="630.0" y="139.2" type="curve" smooth="yes"/>
      <point x="432.4" y="139.2"/>
      <point x="300.4" y="285.0"/>
      <point x="300.4" y="503.8" type="curve" smooth="yes"/>
      <point x="300.4" y="724.4"/>
      <point x="432.0" y="872.2"/>
      <point x="628.6" y="872.2" type="curve" smooth="yes"/>
      <point x="823.2" y="872.2"/>
      <point x="952.4" y="725.0"/>
      <point x="952.4" y="505.0" type="curve" smooth="yes"/>
      <point x="952.4" y="285.6"/>
      <point x="823.6" y="139.2"/>
    </contour>
    <contour>
      <point x="629.2" y="-22.0" type="curve" smooth="yes"/>
      <point x="944.4" y="-22.0"/>
      <point x="1153.6" y="189.6"/>
      <point x="1153.6" y="506.6" type="curve" smooth="yes"/>
      <point x="1153.6" y="824.4"/>
      <point x="943.6" y="1035.2"/>
      <point x="628.2" y="1035.2" type="curve" smooth="yes"/>
      <point x="310.8" y="1035.2"/>
      <point x="99.2" y="823.0"/>
      <point x="99.2" y="505.0" type="curve" smooth="yes"/>
      <point x="99.2" y="188.6"/>
      <point x="311.2" y="-22.0"/>
    </contour>
  </outline>
</glyph>
<glyph name="p" format="1">
  <advance width="1287.0"/>
  <unicode hex="0070"/>
  <outline>
    <contour>
      <point x="174.6" y="-472.6" type="line"/>
      <point x="372.6" y="-461.8" type="line"/>
      <point x="373.4" y="83.8" type="line"/>
      <point x="449.8" y="18.6"/>
      <point x="583.4" y="-22.0"/>
      <point x="708.0" y="-22.0" type="curve" smooth="yes"/>
      <point x="1004.0" y="-22.0"/>
      <point x="1192.6" y="188.4"/>
      <point x="1192.6" y="519.8" type="curve" smooth="yes"/>
      <point x="1192.6" y="841.2"/>
      <point x="1008.2" y="1035.2"/>
      <point x="724.0" y="1035.2" type="curve" smooth="yes"/>
      <point x="576.2" y="1035.2"/>
      <point x="424.4" y="963.0"/>
      <point x="353.4" y="833.6" type="curve"/>
      <point x="343.8" y="909.0"/>
      <point x="296.6" y="973.2"/>
      <point x="247.0" y="1013.2" type="curve"/>
      <point x="67.6" y="931.2" type="line"/>
      <point x="113.8" y="877.8"/>
      <point x="174.6" y="812.4"/>
      <point x="174.6" y="674.8" type="curve" smooth="yes"/>
    </contour>
    <contour>
      <point x="680.0" y="139.2" type="curve" smooth="yes"/>
      <point x="554.0" y="139.2"/>
      <point x="430.6" y="190.4"/>
      <point x="372.0" y="273.6" type="curve"/>
      <point x="372.0" y="427.2" type="line" smooth="yes"/>
      <point x="372.0" y="699.0"/>
      <point x="507.0" y="872.2"/>
      <point x="708.2" y="872.2" type="curve" smooth="yes"/>
      <point x="886.6" y="872.2"/>
      <point x="991.0" y="736.4"/>
      <point x="991.0" y="513.8" type="curve" smooth="yes"/>
      <point x="991.0" y="283.2"/>
      <point x="871.2" y="139.2"/>
    </contour>
  </outline>
</glyph>
<glyph name="r" format="1">
  <advance width="838.8"/>
  <unicode hex="0072"/>
  <outline>
    <contour>
      <point x="194.6" y="0.0" type="line"/>
      <point x="392.6" y="0.0" type="line"/>
      <point x="392.6" y="550.8" type="line" smooth="yes"/>
      <point x="396.6" y="724.2"/>
      <point x="489.0" y="860.2"/>
      <point x="656.6" y="860.2" type="curve" smooth="yes"/>
      <point x="721.6" y="860.2"/>
      <point x="762.2" y="847.4"/>
      <point x="790.0" y="839.4" type="curve"/>
      <point x="805.6" y="1014.0" type="line"/>
      <point x="770.0" y="1023.6"/>
      <point x="735.0" y="1033.6"/>
      <point x="653.2" y="1033.6" type="curve" smooth="yes"/>
      <point x="533.8" y="1033.6"/>
      <point x="404.8" y="957.4"/>
      <point x="368.0" y="854.8" type="curve"/>
      <point x="355.6" y="915.6"/>
      <point x="310.2" y="973.6"/>
      <point x="265.8" y="1014.0" type="curve"/>
      <point x="85.2" y="928.8" type="line"/>
      <point x="130.8" y="884.0"/>
      <point x="194.6" y="813.0"/>
      <point x="194.6" y="663.8" type="curve" smooth="yes"/>
    </contour>
  </outline>
</glyph>
<glyph name="s" format="1">
  <advance width="945.6"/>
  <unicode hex="0073"/>
  <outline>
    <contour>
      <point x="495.2" y="-22.0" type="curve" smooth="yes"/>
      <point x="720.0" y="-22.0"/>
      <point x="847.2" y="102.2"/>
      <point x="849.6" y="286.6" type="curve" smooth="yes"/>
      <point x="852.0" y="448.0"/>
      <point x="737.15" y="520.8"/>
      <point x="562.9" y="586.325" type="curve" smooth="yes"/>
      <point x="423.85" y="640.65"/>
      <point x="322.6" y="680.5"/>
      <point x="322.6" y="760.4" type="curve" smooth="yes"/>
      <point x="322.6" y="835.0"/>
      <point x="381.0" y="877.0"/>
      <point x="489.4" y="877.0" type="curve" smooth="yes"/>
      <point x="574.4" y="877.0"/>
      <point x="678.6" y="848.2"/>
      <point x="765.8" y="802.8" type="curve"/>
      <point x="809.0" y="955.8" type="line"/>
      <point x="730.2" y="998.2"/>
      <point x="605.6" y="1035.2"/>
      <point x="478.2" y="1035.2" type="curve" smooth="yes"/>
      <point x="241.8" y="1035.2"/>
      <point x="134.8" y="903.0"/>
      <point x="133.0" y="749.8" type="curve" smooth="yes"/>
      <point x="131.2" y="596.2"/>
      <point x="239.55" y="518.65"/>
      <point x="410.75" y="452.95" type="curve" smooth="yes"/>
      <point x="562.75" y="392.85"/>
      <point x="665.2" y="359.8"/>
      <point x="665.2" y="266.0" type="curve" smooth="yes"/>
      <point x="665.2" y="181.4"/>
      <point x="597.6" y="136.8"/>
      <point x="488.0" y="136.8" type="curve" smooth="yes"/>
      <point x="392.4" y="136.8"/>
      <point x="275.8" y="172.2"/>
      <point x="186.4" y="228.8" type="curve"/>
      <point x="135.6" y="74.2" type="line"/>
      <point x="208.4" y="28.4"/>
      <point x="347.0" y="-22.0"/>
    </contour>
  </outline>
</glyph>
<glyph name="t" format="1">
  <advance width="849.4"/>
  <unicode hex="0074"/>
  <outline>
    <contour>
      <point x="566.8" y="-11.2" type="curve" smooth="yes"/>
      <point x="631.8" y="-11.2"/>
      <point x="731.6" y="7.4"/>
      <point x="804.2" y="30.2" type="curve"/>
      <point x="782.8" y="180.0" type="line"/>
      <point x="736.2" y="163.2"/>
      <point x="645.8" y="145.8"/>
      <point x="599.8" y="145.8" type="curve" smooth="yes"/>
      <point x="483.4" y="145.8"/>
      <point x="426.8" y="198.2"/>
      <point x="426.8" y="318.0" type="curve" smooth="yes"/>
      <point x="426.8" y="879.4" type="line"/>
      <point x="739.8" y="879.4" type="line"/>
      <point x="739.8" y="1014.0" type="line"/>
      <point x="426.8" y="1014.0" type="line"/>
      <point x="426.8" y="1342.2" type="line"/>
      <point x="233.0" y="1302.4" type="line"/>
      <point x="233.0" y="1014.0" type="line"/>
      <point x="33.4" y="1014.0" type="line"/>
      <point x="33.4" y="879.4" type="line"/>
      <point x="230.0" y="879.4" type="line"/>
      <point x="230.0" y="298.4" type="line" smooth="yes"/>
      <point x="230.0" y="81.6"/>
      <point x="348.4" y="-11.2"/>
    </contour>
  </outline>
</glyph>
<glyph name="u" format="1">
  <advance width="1252.2"/>
  <unicode hex="0075"/>
  <outline>
    <contour>
      <point x="531.6" y="-22.0" type="curve" smooth="yes"/>
      <point x="684.0" y="-22.0"/>
      <point x="810.0" y="44.0"/>
      <point x="883.0" y="161.6" type="curve"/>
      <point x="899.4" y="50.6"/>
      <point x="1007.2" y="-21.4"/>
      <point x="1166.2" y="-3.4" type="curve"/>
      <point x="1189.8" y="165.4" type="line"/>
      <point x="1103.0" y="153.4"/>
      <point x="1052.8" y="201.6"/>
      <point x="1052.8" y="323.2" type="curve" smooth="yes"/>
      <point x="1052.8" y="1014.0" type="line"/>
      <point x="855.2" y="1014.0" type="line"/>
      <point x="855.2" y="445.4" type="line" smooth="yes"/>
      <point x="855.2" y="255.0"/>
      <point x="725.6" y="137.6"/>
      <point x="556.6" y="137.6" type="curve" smooth="yes"/>
      <point x="444.0" y="137.6"/>
      <point x="347.0" y="203.4"/>
      <point x="351.2" y="371.4" type="curve" smooth="yes"/>
      <point x="356.8" y="587.8" type="line" smooth="yes"/>
      <point x="365.8" y="918.2"/>
      <point x="306.6" y="1014.0"/>
      <point x="306.6" y="1014.0" type="curve"/>
      <point x="108.0" y="987.6" type="line"/>
      <point x="108.0" y="987.6"/>
      <point x="167.2" y="878.2"/>
      <point x="158.2" y="574.8" type="curve" smooth="yes"/>
      <point x="153.0" y="360.6" type="line" smooth="yes"/>
      <point x="145.4" y="99.6"/>
      <point x="320.8" y="-22.0"/>
    </contour>
  </outline>
</glyph>
<glyph name="w" format="1">
  <advance width="1681.6"/>
  <unicode hex="0077"/>
  <outline>
    <contour>
      <point x="400.2" y="0.0" type="line"/>
      <point x="578.6" y="0.0" type="line"/>
      <point x="847.4" y="731.4" type="line"/>
      <point x="1108.8" y="0.0" type="line"/>
      <point x="1286.0" y="0.0" type="line"/>
      <point x="1658.8" y="1014.0" type="line"/>
      <point x="1458.2" y="1014.0" type="line"/>
      <point x="1241.8" y="365.8" type="line"/>
      <point x="1229.8" y="335.4"/>
      <point x="1219.2" y="301.0"/>
      <point x="1199.8" y="243.4" type="curve"/>
      <point x="1187.4" y="282.2"/>
      <point x="1172.0" y="330.0"/>
      <point x="1159.6" y="365.2" type="curve" smooth="yes"/>
      <point x="949.2" y="973.6" type="line"/>
      <point x="929.476839516" y="1026.8525333"/>
      <point x="768.999254604" y="1031.60652428"/>
      <point x="748.4" y="971.6" type="curve"/>
      <point x="533.8" y="359.2" type="line"/>
      <point x="521.8" y="331.8"/>
      <point x="511.2" y="298.0"/>
      <point x="493.2" y="241.6" type="curve"/>
      <point x="481.2" y="281.0"/>
      <point x="465.8" y="328.2"/>
      <point x="453.4" y="364.0" type="curve" smooth="yes"/>
      <point x="230.0" y="1014.0" type="line"/>
      <point x="22.8" y="1014.0" type="line"/>
    </contour>
  </outline>
</glyph>
<glyph name="y" format="1">
  <advance width="1232.8"/>
  <unicode hex="0079"/>
  <outline>
    <contour>
      <point x="542.2" y="-513.2" type="curve" smooth="yes"/>
      <point x="838.8" y="-513.2"/>
      <point x="1061.6" y="-344.0"/>
      <point x="1062.0" y="-16.2" type="curve" smooth="yes"/>
      <point x="1062.4" y="323.2" type="line"/>
      <point x="1062.0" y="1014.0" type="line"/>
      <point x="864.4" y="1014.0" type="line"/>
      <point x="864.4" y="445.4" type="line" smooth="yes"/>
      <point x="865.6" y="255.0"/>
      <point x="734.8" y="137.6"/>
      <point x="565.8" y="137.6" type="curve" smooth="yes"/>
      <point x="454.0" y="137.6"/>
      <point x="355.8" y="203.4"/>
      <point x="360.4" y="371.4" type="curve" smooth="yes"/>
      <point x="365.6" y="587.8" type="line" smooth="yes"/>
      <point x="375.0" y="918.2"/>
      <point x="315.8" y="1014.0"/>
      <point x="315.8" y="1014.0" type="curve"/>
      <point x="117.6" y="987.6" type="line"/>
      <point x="117.6" y="987.6"/>
      <point x="177.2" y="878.2"/>
      <point x="167.8" y="574.8" type="curve" smooth="yes"/>
      <point x="162.2" y="361.0" type="line" smooth="yes"/>
      <point x="155.0" y="100.0"/>
      <point x="330.0" y="-22.0"/>
      <point x="540.8" y="-22.0" type="curve" smooth="yes"/>
      <point x="676.0" y="-22.0"/>
      <point x="790.6" y="30.0"/>
      <point x="866.8" y="124.4" type="curve"/>
      <point x="865.6" y="-44.0" type="line" smooth="yes"/>
      <point x="865.6" y="-252.4"/>
      <point x="716.0" y="-344.2"/>
      <point x="516.2" y="-344.2" type="curve" smooth="yes"/>
      <point x="424.8" y="-344.2"/>
      <point x="311.2" y="-316.8"/>
      <point x="221.2" y="-271.6" type="curve"/>
      <point x="191.4" y="-443.4" type="line"/>
      <point x="298.4" y="-487.2"/>
      <point x="431.2" y="-513.2"/>
    </contour>
  </outline>
</glyph>
<glyph name="z" format="1">
  <advance width="1004.6"/>
  <unicode hex="007A"/>
  <outline>
    <contour>
      <point x="97.6" y="0.0" type="line"/>
      <point x="933.2" y="0.0" type="line"/>
      <point x="933.2" y="154.4" type="line"/>
      <point x="353.0" y="154.4" type="line"/>
      <point x="914.2" y="900.6" type="line"/>
      <point x="914.2" y="1014.0" type="line"/>
      <point x="119.2" y="1014.0" type="line"/>
      <point x="119.2" y="864.6" type="line"/>
      <point x="662.4" y="864.6" type="line"/>
      <point x="97.6" y="115.4" type="line"/>
    </contour>
  </outline>
</glyph>
<glyph name="bar" format="1">
  <advance width="652.4"/>
  <unicode hex="007C"/>
  <outline>
    <contour>
      <point x="240.0" y="-458.2" type="line"/>
      <point x="408.2" y="-458.2" type="line"/>
      <point x="408.2" y="1537.4" type="line"/>
      <point x="240.0" y="1537.4" type="line"/>
    </contour>
  </outline>
</glyph>
<glyph name="asciitilde" format="1">
  <advance width="1567.2"/>
  <unicode hex="007E"/>
  <outline>
    <contour>
      <point x="332.0" y="502.2" type="line"/>
      <point x="354.6" y="598.6"/>
      <point x="417.2" y="701.0"/>
      <point x="535.2" y="701.0" type="curve" smooth="yes"/>
      <point x="557.4" y="701.0"/>
      <point x="582.4" y="696.6"/>
      <point x="610.0" y="688.2" type="curve" smooth="yes"/>
      <point x="702.0" y="659.2"/>
      <point x="788.6" y="611.0"/>
      <point x="873.2" y="574.0" type="curve" smooth="yes"/>
      <point x="918.0" y="553.8"/>
      <point x="973.6" y="529.2"/>
      <point x="1029.2" y="529.2" type="curve" smooth="yes"/>
      <point x="1072.0" y="529.2"/>
      <point x="1110.4" y="535.6"/>
      <point x="1145.8" y="550.4" type="curve" smooth="yes"/>
      <point x="1255.0" y="596.6"/>
      <point x="1320.4" y="695.6"/>
      <point x="1350.4" y="822.0" type="curve"/>
      <point x="1216.6" y="863.8" type="line"/>
      <point x="1196.4" y="776.2"/>
      <point x="1137.4" y="673.4"/>
      <point x="1030.6" y="673.4" type="curve" smooth="yes"/>
      <point x="1013.4" y="673.4"/>
      <point x="993.2" y="677.8"/>
      <point x="969.6" y="686.2" type="curve" smooth="yes"/>
      <point x="883.0" y="718.2"/>
      <point x="797.4" y="766.0"/>
      <point x="710.8" y="800.4" type="curve" smooth="yes"/>
      <point x="658.2" y="820.6"/>
      <point x="597.2" y="844.6"/>
      <point x="532.2" y="844.6" type="curve" smooth="yes"/>
      <point x="487.0" y="844.6"/>
      <point x="446.6" y="837.2"/>
      <point x="410.2" y="821.0" type="curve" smooth="yes"/>
      <point x="306.4" y="776.2"/>
      <point x="234.6" y="681.8"/>
      <point x="209.0" y="560.8" type="curve"/>
    </contour>
  </outline>
</glyph>
<glyph name="currency" format="1">
  <advance width="1245.2"/>
  <unicode hex="00A4"/>
  <outline>
    <contour>
      <point x="152.2" y="254.2" type="line"/>
      <point x="325.0" y="433.8" type="line"/>
      <point x="397.8" y="374.8"/>
      <point x="490.2" y="338.8"/>
      <point x="589.6" y="338.8" type="curve" smooth="yes"/>
      <point x="696.4" y="338.8"/>
      <point x="794.4" y="377.6"/>
      <point x="868.2" y="442.6" type="curve"/>
      <point x="1047.6" y="270.4" type="line"/>
      <point x="1087.0" y="308.8" type="line"/>
      <point x="907.4" y="482.0" type="line"/>
      <point x="968.4" y="551.8"/>
      <point x="1005.4" y="641.8"/>
      <point x="1007.8" y="742.2" type="curve" smooth="yes"/>
      <point x="1010.2" y="851.0"/>
      <point x="970.0" y="950.8"/>
      <point x="901.6" y="1026.6" type="curve"/>
      <point x="1071.2" y="1202.2" type="line"/>
      <point x="1028.0" y="1243.6" type="line"/>
      <point x="859.2" y="1068.0" type="line"/>
      <point x="788.8" y="1127.6"/>
      <point x="698.8" y="1164.4"/>
      <point x="600.4" y="1166.8" type="curve" smooth="yes"/>
      <point x="492.6" y="1169.2"/>
      <point x="389.8" y="1127.4"/>
      <point x="312.6" y="1058.6" type="curve"/>
      <point x="139.0" y="1226.4" type="line"/>
      <point x="97.6" y="1185.0" type="line"/>
      <point x="271.8" y="1016.8" type="line"/>
      <point x="209.8" y="944.4"/>
      <point x="171.0" y="852.4"/>
      <point x="171.0" y="753.0" type="curve" smooth="yes"/>
      <point x="171.0" y="644.2"/>
      <point x="214.8" y="545.0"/>
      <point x="284.6" y="471.2" type="curve"/>
      <point x="113.8" y="294.0" type="line"/>
    </contour>
    <contour>
      <point x="587.2" y="421.0" type="curve" smooth="yes"/>
      <point x="406.6" y="421.0"/>
      <point x="265.8" y="568.6"/>
      <point x="265.8" y="750.0" type="curve" smooth="yes"/>
      <point x="265.8" y="930.6"/>
      <point x="415.0" y="1082.2"/>
      <point x="596.0" y="1077.8" type="curve" smooth="yes"/>
      <point x="776.0" y="1073.8"/>
      <point x="913.4" y="922.8"/>
      <point x="909.4" y="742.2" type="curve" smooth="yes"/>
      <point x="905.0" y="561.2"/>
      <point x="768.2" y="421.0"/>
    </contour>
  </outline>
</glyph>
<glyph name="section" format="1">
  <advance width="1431.0"/>
  <unicode hex="00A7"/>
  <outline>
    <contour>
      <point x="558.8" y="-62.4" type="curve" smooth="yes"/>
      <point x="679.8" y="-62.4"/>
      <point x="787.6" y="-30.4"/>
      <point x="861.8" y="20.8" type="curve" smooth="yes"/>
      <point x="932.2" y="70.0"/>
      <point x="993.6" y="144.8"/>
      <point x="993.6" y="258.0" type="curve" smooth="yes"/>
      <point x="993.6" y="392.8"/>
      <point x="910.0" y="456.2"/>
      <point x="819.0" y="502.4" type="curve"/>
      <point x="908.0" y="556.6"/>
      <point x="1017.8" y="637.2"/>
      <point x="1017.8" y="777.0" type="curve" smooth="yes"/>
      <point x="1017.8" y="814.4"/>
      <point x="1008.4" y="848.8"/>
      <point x="991.2" y="878.8" type="curve" smooth="yes"/>
      <point x="912.0" y="1012.6"/>
      <point x="724.0" y="1059.8"/>
      <point x="584.8" y="1135.6" type="curve" smooth="yes"/>
      <point x="522.8" y="1170.0"/>
      <point x="463.8" y="1208.4"/>
      <point x="463.8" y="1295.0" type="curve" smooth="yes"/>
      <point x="463.8" y="1409.6"/>
      <point x="577.4" y="1439.2"/>
      <point x="693.6" y="1439.2" type="curve" smooth="yes"/>
      <point x="783.6" y="1439.2"/>
      <point x="871.2" y="1413.6"/>
      <point x="935.6" y="1383.6" type="curve"/>
      <point x="933.2" y="1542.0" type="line"/>
      <point x="853.0" y="1566.6"/>
      <point x="787.6" y="1585.8"/>
      <point x="688.6" y="1585.8" type="curve" smooth="yes"/>
      <point x="474.2" y="1585.8"/>
      <point x="279.8" y="1503.6"/>
      <point x="279.8" y="1290.6" type="curve" smooth="yes"/>
      <point x="279.8" y="1154.4"/>
      <point x="352.6" y="1087.0"/>
      <point x="443.6" y="1031.8" type="curve"/>
      <point x="349.6" y="984.6"/>
      <point x="241.4" y="907.4"/>
      <point x="241.4" y="768.6" type="curve" smooth="yes"/>
      <point x="241.4" y="734.2"/>
      <point x="247.8" y="702.2"/>
      <point x="259.6" y="673.2" type="curve" smooth="yes"/>
      <point x="300.4" y="573.8"/>
      <point x="393.4" y="517.2"/>
      <point x="493.8" y="474.4" type="curve" smooth="yes"/>
      <point x="583.8" y="436.0" type="line" smooth="yes"/>
      <point x="619.2" y="421.2"/>
      <point x="651.2" y="407.0"/>
      <point x="679.2" y="394.2" type="curve" smooth="yes"/>
      <point x="740.8" y="365.2"/>
      <point x="808.2" y="333.2"/>
      <point x="808.2" y="248.6" type="curve" smooth="yes"/>
      <point x="808.2" y="225.0"/>
      <point x="803.2" y="203.8"/>
      <point x="791.4" y="183.6" type="curve" smooth="yes"/>
      <point x="753.0" y="116.2"/>
      <point x="662.0" y="84.2"/>
      <point x="553.8" y="84.2" type="curve" smooth="yes"/>
      <point x="442.6" y="84.2"/>
      <point x="356.6" y="112.8"/>
      <point x="268.0" y="152.2" type="curve"/>
      <point x="270.4" y="-6.8" type="line"/>
      <point x="351.6" y="-39.8"/>
      <point x="449.6" y="-62.4"/>
    </contour>
    <contour>
      <point x="675.4" y="573.8" type="curve"/>
      <point x="639.0" y="588.6"/>
      <point x="606.0" y="602.8"/>
      <point x="576.0" y="616.6" type="curve" smooth="yes"/>
      <point x="507.6" y="647.6"/>
      <point x="430.4" y="687.4"/>
      <point x="430.4" y="781.4" type="curve" smooth="yes"/>
      <point x="430.4" y="877.8"/>
      <point x="508.6" y="930.0"/>
      <point x="573.0" y="964.4" type="curve"/>
      <point x="659.0" y="917.2"/>
      <point x="827.4" y="893.6"/>
      <point x="827.4" y="762.2" type="curve" smooth="yes"/>
      <point x="827.4" y="740.6"/>
      <point x="823.4" y="721.8"/>
      <point x="814.0" y="703.2" type="curve" smooth="yes"/>
      <point x="784.6" y="646.6"/>
      <point x="728.0" y="607.2"/>
    </contour>
  </outline>
</glyph>
<glyph name="ordfeminine" format="1">
  <advance width="860.6"/>
  <unicode hex="00AA"/>
  <outline>
    <contour>
      <point x="369.4" y="715.2" type="curve" smooth="yes"/>
      <point x="476.2" y="715.2"/>
      <point x="556.8" y="754.6"/>
      <point x="604.6" y="813.2" type="curve"/>
      <point x="611.0" y="734.4" type="line"/>
      <point x="751.2" y="734.4" type="line"/>
      <point x="745.8" y="798.8"/>
      <point x="743.8" y="824.0"/>
      <point x="743.8" y="871.2" type="curve" smooth="yes"/>
      <point x="745.8" y="1214.6" type="line"/>
      <point x="745.8" y="1391.2"/>
      <point x="627.2" y="1473.4"/>
      <point x="451.6" y="1473.4" type="curve" smooth="yes"/>
      <point x="310.4" y="1473.4"/>
      <point x="203.6" y="1429.6"/>
      <point x="149.0" y="1337.6" type="curve"/>
      <point x="220.8" y="1257.4" type="line"/>
      <point x="268.0" y="1327.2"/>
      <point x="339.4" y="1358.2"/>
      <point x="445.2" y="1358.2" type="curve" smooth="yes"/>
      <point x="562.8" y="1358.2"/>
      <point x="603.6" y="1315.4"/>
      <point x="603.6" y="1197.8" type="curve" smooth="yes"/>
      <point x="603.6" y="1189.0" type="line"/>
      <point x="524.4" y="1178.2"/>
      <point x="440.2" y="1179.6"/>
      <point x="361.0" y="1168.8" type="curve"/>
      <point x="232.6" y="1149.2"/>
      <point x="100.8" y="1082.8"/>
      <point x="100.8" y="936.6" type="curve" smooth="yes"/>
      <point x="100.8" y="903.2"/>
      <point x="107.2" y="873.2"/>
      <point x="121.0" y="845.6" type="curve" smooth="yes"/>
      <point x="160.8" y="764.4"/>
      <point x="249.4" y="715.2"/>
    </contour>
    <contour>
      <point x="391.6" y="825.4" type="curve" smooth="yes"/>
      <point x="308.4" y="825.4"/>
      <point x="246.4" y="855.4"/>
      <point x="246.4" y="938.6" type="curve" smooth="yes"/>
      <point x="246.4" y="1086.6"/>
      <point x="483.6" y="1057.2"/>
      <point x="603.6" y="1080.8" type="curve"/>
      <point x="603.6" y="1054.2" type="line"/>
      <point x="596.8" y="922.8"/>
      <point x="530.8" y="825.4"/>
    </contour>
  </outline>
</glyph>
<glyph name="logicalnot" format="1">
  <advance width="1901.6"/>
  <unicode hex="00AC"/>
  <outline>
    <contour>
      <point x="1221.6" y="310.4" type="line"/>
      <point x="1382.0" y="310.4" type="line"/>
      <point x="1382.0" y="909.6" type="line"/>
      <point x="261.2" y="909.6" type="line"/>
      <point x="261.2" y="760.6" type="line"/>
      <point x="1221.6" y="760.6" type="line"/>
    </contour>
  </outline>
</glyph>
<glyph name="plusminus" format="1">
  <advance width="1901.6"/>
  <unicode hex="00B1"/>
  <outline>
    <contour>
      <point x="736.2" y="238.6" type="line"/>
      <point x="897.6" y="238.6" type="line"/>
      <point x="897.6" y="636.6" type="line"/>
      <point x="1375.8" y="636.6" type="line"/>
      <point x="1375.8" y="784.2" type="line"/>
      <point x="893.2" y="784.2" type="line"/>
      <point x="893.2" y="1183.8" type="line"/>
      <point x="734.2" y="1183.8" type="line"/>
      <point x="734.2" y="784.2" type="line"/>
      <point x="245.2" y="784.2" type="line"/>
      <point x="258.4" y="636.6" type="line"/>
      <point x="736.2" y="636.6" type="line"/>
    </contour>
    <contour>
      <point x="258.4" y="0.0" type="line"/>
      <point x="1380.2" y="0.0" type="line"/>
      <point x="1380.2" y="148.0" type="line"/>
      <point x="258.4" y="148.0" type="line"/>
    </contour>
  </outline>
</glyph>
<glyph name="acute" format="1">
  <advance width="791.4"/>
  <unicode hex="00B4"/>
  <outline>
    <contour>
      <point x="228.2" y="1528.8" type="line"/>
      <point x="395.4" y="1528.8" type="line"/>
      <point x="725.0" y="1871.2" type="line"/>
      <point x="470.2" y="1871.2" type="line"/>
    </contour>
  </outline>
</glyph>
<glyph name="periodcentered" format="1">
  <advance width="578.8"/>
  <unicode hex="00B7"/>
  <outline>
    <contour>
      <point x="99.2" y="669.4" type="line"/>
      <point x="331.4" y="669.4" type="line"/>
      <point x="331.4" y="894.2" type="line"/>
      <point x="99.2" y="894.2" type="line"/>
    </contour>
  </outline>
</glyph>
<glyph name="ordmasculine" format="1">
  <advance width="1074.8"/>
  <unicode hex="00BA"/>
  <outline>
    <contour>
      <point x="457.2" y="1000.6" type="curve" smooth="yes"/>
      <point x="519.6" y="1000.6"/>
      <point x="574.8" y="1010.4"/>
      <point x="622.0" y="1030.6" type="curve" smooth="yes"/>
      <point x="750.4" y="1084.2"/>
      <point x="840.4" y="1200.4"/>
      <point x="840.4" y="1379.0" type="curve" smooth="yes"/>
      <point x="840.4" y="1432.2"/>
      <point x="831.6" y="1481.8"/>
      <point x="815.8" y="1528.0" type="curve" smooth="yes"/>
      <point x="766.6" y="1667.2"/>
      <point x="644.6" y="1759.2"/>
      <point x="456.6" y="1759.2" type="curve" smooth="yes"/>
      <point x="394.6" y="1759.2"/>
      <point x="339.6" y="1748.4"/>
      <point x="291.8" y="1729.2" type="curve" smooth="yes"/>
      <point x="162.4" y="1675.6"/>
      <point x="69.4" y="1561.0"/>
      <point x="69.4" y="1382.4" type="curve" smooth="yes"/>
      <point x="69.4" y="1144.2"/>
      <point x="216.6" y="1000.6"/>
    </contour>
    <contour>
      <point x="457.2" y="1115.8" type="curve" smooth="yes"/>
      <point x="300.2" y="1115.8"/>
      <point x="219.0" y="1225.4"/>
      <point x="219.0" y="1381.4" type="curve" smooth="yes"/>
      <point x="219.0" y="1532.4"/>
      <point x="302.2" y="1644.6"/>
      <point x="454.2" y="1644.6" type="curve" smooth="yes"/>
      <point x="609.2" y="1644.6"/>
      <point x="692.8" y="1532.4"/>
      <point x="692.8" y="1377.4" type="curve" smooth="yes"/>
      <point x="692.8" y="1227.4"/>
      <point x="608.2" y="1115.8"/>
    </contour>
  </outline>
</glyph>
<glyph name="onequarter" format="1">
  <advance width="3202.6"/>
  <unicode hex="00BC"/>
  <outline>
    <contour>
      <point x="-439.4" y="0.0" type="line"/>
      <point x="-278.0" y="0.0" type="line"/>
      <point x="570.2" y="1350.0" type="line"/>
      <point x="570.2" y="1287.0" type="line"/>
      <point x="623.4" y="1307.2"/>
      <point x="685.4" y="1334.8"/>
      <point x="732.6" y="1359.4" type="curve"/>
      <point x="732.6" y="1249.6" type="line" smooth="yes"/>
      <point x="732.6" y="1194.0"/>
      <point x="733.6" y="1141.4"/>
      <point x="733.6" y="1078.0" type="curve" smooth="yes"/>
      <point x="733.6" y="773.4" type="line"/>
      <point x="603.2" y="773.4" type="line"/>
      <point x="603.2" y="646.4" type="line"/>
      <point x="993.8" y="646.4" type="line"/>
      <point x="993.8" y="770.0" type="line"/>
      <point x="863.4" y="770.0" type="line"/>
      <point x="863.4" y="1526.2" type="line"/>
      <point x="750.8" y="1510.4" type="line"/>
      <point x="712.8" y="1487.4"/>
      <point x="675.4" y="1466.6"/>
      <point x="632.6" y="1448.4" type="curve"/>
      <point x="687.8" y="1536.0" type="line"/>
      <point x="528.4" y="1536.0" type="line"/>
    </contour>
    <contour>
      <point x="1968.0" y="657.8" type="line"/>
      <point x="2096.4" y="657.8" type="line"/>
      <point x="2096.4" y="859.0" type="line"/>
      <point x="2225.8" y="859.0" type="line"/>
      <point x="2215.4" y="973.6" type="line"/>
      <point x="2098.8" y="973.6" type="line"/>
      <point x="2098.8" y="1510.4" type="line"/>
      <point x="1955.6" y="1510.4" type="line"/>
      <point x="1564.0" y="956.4" type="line"/>
      <point x="1564.0" y="859.0" type="line"/>
      <point x="1968.0" y="859.0" type="line"/>
    </contour>
    <contour>
      <point x="1712.6" y="973.6" type="line"/>
      <point x="1968.0" y="1330.8" type="line"/>
      <point x="1968.0" y="973.6" type="line"/>
    </contour>
  </outline>
</glyph>
<glyph name="threequarters" format="1">
  <advance width="3202.6"/>
  <unicode hex="00BE"/>
  <outline>
    <contour>
      <point x="-439.4" y="0.0" type="line"/>
      <point x="-278.0" y="0.0" type="line"/>
      <point x="593.8" y="1387.0" type="line"/>
      <point x="628.2" y="1330.8" type="line"/>
      <point x="680.4" y="1373.2"/>
      <point x="745.8" y="1414.0"/>
      <point x="833.4" y="1414.0" type="curve" smooth="yes"/>
      <point x="920.0" y="1414.0"/>
      <point x="984.0" y="1381.0"/>
      <point x="984.0" y="1294.4" type="curve" smooth="yes"/>
      <point x="984.0" y="1187.2"/>
      <point x="881.6" y="1165.0"/>
      <point x="773.4" y="1165.0" type="curve" smooth="yes"/>
      <point x="720.8" y="1165.0" type="line"/>
      <point x="720.8" y="1038.0" type="line"/>
      <point x="748.8" y="1038.0" type="line" smooth="yes"/>
      <point x="754.2" y="1038.0"/>
      <point x="776.6" y="1038.6"/>
      <point x="780.8" y="1038.6" type="curve" smooth="yes"/>
      <point x="901.4" y="1038.6"/>
      <point x="1010.6" y="1014.4"/>
      <point x="1010.6" y="895.4" type="curve" smooth="yes"/>
      <point x="1010.6" y="797.0"/>
      <point x="924.4" y="749.8"/>
      <point x="824.0" y="749.8" type="curve" smooth="yes"/>
      <point x="754.2" y="749.8"/>
      <point x="689.8" y="777.8"/>
      <point x="629.8" y="833.0" type="curve"/>
      <point x="565.8" y="730.6" type="line"/>
      <point x="626.8" y="669.6"/>
      <point x="714.4" y="626.8"/>
      <point x="829.0" y="626.8" type="curve" smooth="yes"/>
      <point x="871.8" y="626.8"/>
      <point x="913.6" y="633.2"/>
      <point x="952.0" y="645.0" type="curve" smooth="yes"/>
      <point x="1056.8" y="678.0"/>
      <point x="1148.8" y="757.6"/>
      <point x="1148.8" y="892.4" type="curve" smooth="yes"/>
      <point x="1148.8" y="1002.2"/>
      <point x="1091.2" y="1068.6"/>
      <point x="1012.0" y="1104.0" type="curve"/>
      <point x="1078.0" y="1139.4"/>
      <point x="1126.6" y="1202.4"/>
      <point x="1126.6" y="1297.4" type="curve" smooth="yes"/>
      <point x="1126.6" y="1337.2"/>
      <point x="1117.8" y="1371.6"/>
      <point x="1101.6" y="1401.6" type="curve" smooth="yes"/>
      <point x="1056.8" y="1484.8"/>
      <point x="962.8" y="1541.4"/>
      <point x="835.4" y="1541.4" type="curve" smooth="yes"/>
      <point x="774.4" y="1541.4"/>
      <point x="715.8" y="1526.2"/>
      <point x="666.6" y="1502.6" type="curve"/>
      <point x="687.8" y="1536.0" type="line"/>
      <point x="528.4" y="1536.0" type="line"/>
    </contour>
    <contour>
      <point x="1968.0" y="657.8" type="line"/>
      <point x="2096.4" y="657.8" type="line"/>
      <point x="2096.4" y="859.0" type="line"/>
      <point x="2225.8" y="859.0" type="line"/>
      <point x="2215.4" y="973.6" type="line"/>
      <point x="2098.8" y="973.6" type="line"/>
      <point x="2098.8" y="1510.4" type="line"/>
      <point x="1955.6" y="1510.4" type="line"/>
      <point x="1564.0" y="956.4" type="line"/>
      <point x="1564.0" y="859.0" type="line"/>
      <point x="1968.0" y="859.0" type="line"/>
    </contour>
    <contour>
      <point x="1712.6" y="973.6" type="line"/>
      <point x="1968.0" y="1330.8" type="line"/>
      <point x="1968.0" y="973.6" type="line"/>
    </contour>
  </outline>
</glyph>
<glyph name="multiply" format="1">
  <advance width="1901.6"/>
  <unicode hex="00D7"/>
  <outline>
    <contour>
      <point x="530.2" y="200.8" type="line"/>
      <point x="848.0" y="517.6" type="line"/>
      <point x="1164.8" y="200.8" type="line"/>
      <point x="1276.0" y="312.0" type="line"/>
      <point x="958.2" y="628.8" type="line"/>
      <point x="1276.0" y="945.6" type="line"/>
      <point x="1164.8" y="1056.8" type="line"/>
      <point x="848.0" y="739.0" type="line"/>
      <point x="530.2" y="1056.8" type="line"/>
      <point x="420.0" y="946.6" type="line"/>
      <point x="736.8" y="628.8" type="line"/>
      <point x="420.0" y="311.0" type="line"/>
    </contour>
  </outline>
</glyph>
<glyph name="lslash" format="1">
  <advance width="655.8"/>
  <unicode hex="0142"/>
  <outline>
    <contour>
      <point x="179.6" y="0.0" type="line"/>
      <point x="356.2" y="0.0" type="line"/>
      <point x="356.2" y="842.8" type="line"/>
      <point x="539.2" y="952.0" type="line"/>
      <point x="539.2" y="1098.6" type="line"/>
      <point x="356.2" y="989.4" type="line"/>
      <point x="356.2" y="1596.0" type="line"/>
      <point x="179.6" y="1596.0" type="line"/>
      <point x="179.6" y="883.6" type="line"/>
      <point x="0.0" y="776.4" type="line"/>
      <point x="0.0" y="629.8" type="line"/>
      <point x="179.6" y="737.0" type="line"/>
    </contour>
  </outline>
</glyph>
<glyph name="florin" format="1">
  <advance width="1552.0"/>
  <unicode hex="0192"/>
  <outline>
    <contour>
      <point x="206.2" y="-433.2" type="curve" smooth="yes"/>
      <point x="271.6" y="-433.2"/>
      <point x="327.6" y="-420.0"/>
      <point x="370.4" y="-393.4" type="curve" smooth="yes"/>
      <point x="506.2" y="-311.2"/>
      <point x="550.6" y="-133.2"/>
      <point x="586.4" y="50.4" type="curve"/>
      <point x="722.2" y="781.0" type="line"/>
      <point x="950.0" y="781.0" type="line"/>
      <point x="960.4" y="930.6" type="line"/>
      <point x="746.8" y="930.6" type="line"/>
      <point x="785.2" y="1140.6" type="line" smooth="yes"/>
      <point x="804.8" y="1244.4"/>
      <point x="847.2" y="1306.0"/>
      <point x="970.6" y="1306.0" type="curve" smooth="yes"/>
      <point x="1013.0" y="1306.0"/>
      <point x="1051.4" y="1296.6"/>
      <point x="1086.8" y="1282.8" type="curve"/>
      <point x="1095.2" y="1437.8" type="line"/>
      <point x="1048.0" y="1449.6"/>
      <point x="995.8" y="1458.0"/>
      <point x="942.6" y="1458.0" type="curve" smooth="yes"/>
      <point x="705.0" y="1458.0"/>
      <point x="616.4" y="1300.0"/>
      <point x="588.4" y="1092.4" type="curve"/>
      <point x="563.8" y="930.6" type="line"/>
      <point x="383.2" y="930.6" type="line"/>
      <point x="372.4" y="781.0" type="line"/>
      <point x="538.2" y="781.0" type="line"/>
      <point x="483.6" y="497.6"/>
      <point x="441.8" y="200.0"/>
      <point x="374.4" y="-70.6" type="curve" smooth="yes"/>
      <point x="350.8" y="-168.0"/>
      <point x="311.4" y="-285.2"/>
      <point x="191.8" y="-285.2" type="curve" smooth="yes"/>
      <point x="165.2" y="-285.2"/>
      <point x="137.2" y="-280.2"/>
      <point x="108.2" y="-268.4" type="curve"/>
      <point x="95.4" y="-416.0" type="line"/>
      <point x="135.8" y="-427.8"/>
      <point x="173.2" y="-433.2"/>
    </contour>
  </outline>
</glyph>
<glyph name="uni0217" format="1">
  <advance width="1565.4"/>
  <unicode hex="0217"/>
  <outline>
    <contour>
      <point x="588.0" y="-28.8" type="curve" smooth="yes"/>
      <point x="757.2" y="-28.8"/>
      <point x="886.4" y="38.0"/>
      <point x="968.6" y="170.4" type="curve"/>
      <point x="988.6" y="45.8"/>
      <point x="1096.4" y="-26.6"/>
      <point x="1236.2" y="-8.6" type="curve"/>
      <point x="1261.8" y="141.0" type="line"/>
      <point x="1182.2" y="129.0"/>
      <point x="1114.4" y="168.0"/>
      <point x="1114.4" y="310.4" type="curve" smooth="yes"/>
      <point x="1114.4" y="1092.4" type="line"/>
      <point x="938.8" y="1092.4" type="line"/>
      <point x="938.8" y="451.4" type="line" smooth="yes"/>
      <point x="938.8" y="241.8"/>
      <point x="791.2" y="119.2"/>
      <point x="614.6" y="119.2" type="curve" smooth="yes"/>
      <point x="485.6" y="119.2"/>
      <point x="356.2" y="175.8"/>
      <point x="361.6" y="385.4" type="curve" smooth="yes"/>
      <point x="367.6" y="631.4" type="line" smooth="yes"/>
      <point x="377.4" y="987.4"/>
      <point x="314.2" y="1092.4"/>
      <point x="314.2" y="1092.4" type="curve"/>
      <point x="137.6" y="1064.4" type="line"/>
      <point x="137.6" y="1064.4"/>
      <point x="200.8" y="944.6"/>
      <point x="191.4" y="617.6" type="curve" smooth="yes"/>
      <point x="185.0" y="385.4" type="line" smooth="yes"/>
      <point x="176.6" y="80.4"/>
      <point x="380.8" y="-28.8"/>
    </contour>
    <contour>
      <point x="365.6" y="1297.6" type="curve"/>
      <point x="458.6" y="1297.6" type="line"/>
      <point x="474.8" y="1391.6"/>
      <point x="553.0" y="1435.8"/>
      <point x="662.2" y="1435.8" type="curve" smooth="yes"/>
      <point x="771.4" y="1435.8"/>
      <point x="855.6" y="1387.2"/>
      <point x="876.8" y="1297.6" type="curve"/>
      <point x="968.8" y="1297.6" type="line"/>
      <point x="955.0" y="1462.4"/>
      <point x="847.2" y="1550.0"/>
      <point x="669.6" y="1550.0" type="curve" smooth="yes"/>
      <point x="487.0" y="1550.0"/>
      <point x="379.4" y="1468.4"/>
    </contour>
  </outline>
</glyph>
<glyph name="circumflex" format="1">
  <advance width="911.8"/>
  <unicode hex="02C6"/>
  <outline>
    <contour>
      <point x="31.8" y="1526.4" type="line"/>
      <point x="194.6" y="1526.4" type="line"/>
      <point x="367.4" y="1729.6" type="line"/>
      <point x="537.8" y="1526.4" type="line"/>
      <point x="707.4" y="1526.4" type="line"/>
      <point x="452.8" y="1873.2" type="line"/>
      <point x="285.0" y="1873.2" type="line"/>
    </contour>
  </outline>
</glyph>
<glyph name="ogonek" format="1">
  <advance width="662.4"/>
  <unicode hex="02DB"/>
  <outline>
    <contour>
      <point x="296.0" y="-508.8" type="curve" smooth="yes"/>
      <point x="364.4" y="-508.8"/>
      <point x="436.2" y="-498.0"/>
      <point x="485.0" y="-477.8" type="curve"/>
      <point x="485.0" y="-359.2" type="line"/>
      <point x="436.2" y="-378.4"/>
      <point x="389.0" y="-392.2"/>
      <point x="320.2" y="-392.2" type="curve" smooth="yes"/>
      <point x="265.6" y="-392.2"/>
      <point x="213.4" y="-359.2"/>
      <point x="213.4" y="-304.6" type="curve" smooth="yes"/>
      <point x="213.4" y="-287.4"/>
      <point x="218.4" y="-270.2"/>
      <point x="229.2" y="-253.0" type="curve" smooth="yes"/>
      <point x="274.4" y="-183.6"/>
      <point x="356.6" y="-136.8"/>
      <point x="430.4" y="-91.6" type="curve"/>
      <point x="292.6" y="-78.8" type="line"/>
      <point x="234.6" y="-106.8"/>
      <point x="176.6" y="-144.2"/>
      <point x="134.2" y="-187.0" type="curve" smooth="yes"/>
      <point x="98.8" y="-222.4"/>
      <point x="62.4" y="-270.2"/>
      <point x="62.4" y="-332.6" type="curve" smooth="yes"/>
      <point x="62.4" y="-361.2"/>
      <point x="69.2" y="-386.8"/>
      <point x="80.6" y="-408.0" type="curve" smooth="yes"/>
      <point x="117.0" y="-473.4"/>
      <point x="195.2" y="-508.8"/>
    </contour>
  </outline>
</glyph>
<glyph name="tilde" format="1">
  <advance width="864.6"/>
  <unicode hex="02DC"/>
  <outline>
    <contour>
      <point x="18.4" y="1569.4" type="curve"/>
      <point x="130.6" y="1569.4" type="line"/>
      <point x="138.4" y="1630.0"/>
      <point x="170.0" y="1660.4"/>
      <point x="228.0" y="1660.4" type="curve" smooth="yes"/>
      <point x="329.8" y="1660.4"/>
      <point x="395.8" y="1587.6"/>
      <point x="498.6" y="1587.6" type="curve" smooth="yes"/>
      <point x="631.0" y="1587.6"/>
      <point x="693.4" y="1696.8"/>
      <point x="707.2" y="1817.8" type="curve"/>
      <point x="591.6" y="1817.8" type="line"/>
      <point x="584.2" y="1763.2"/>
      <point x="555.2" y="1721.4"/>
      <point x="498.6" y="1721.4" type="curve" smooth="yes"/>
      <point x="478.4" y="1721.4"/>
      <point x="456.4" y="1725.4"/>
      <point x="435.2" y="1733.2" type="curve" smooth="yes"/>
      <point x="373.2" y="1755.4"/>
      <point x="312.2" y="1794.2"/>
      <point x="231.0" y="1794.2" type="curve" smooth="yes"/>
      <point x="98.6" y="1794.2"/>
      <point x="28.8" y="1693.4"/>
    </contour>
  </outline>
</glyph>
<glyph name="hungarumlaut" format="1">
  <advance width="1263.0"/>
  <unicode hex="02DD"/>
  <outline>
    <contour>
      <point x="211.6" y="1531.2" type="line"/>
      <point x="337.6" y="1531.2" type="line"/>
      <point x="631.8" y="1866.2" type="line"/>
      <point x="443.4" y="1866.2" type="line"/>
    </contour>
    <contour>
      <point x="497.0" y="1531.2" type="line"/>
      <point x="625.4" y="1531.2" type="line"/>
      <point x="920.6" y="1866.2" type="line"/>
      <point x="732.2" y="1866.2" type="line"/>
    </contour>
  </outline>
</glyph>
<glyph name="uni0311" format="1">
  <advance width="820.2"/>
  <unicode hex="0311"/>
  <outline>
    <contour>
      <point x="42.0" y="1588.8" type="curve"/>
      <point x="135.0" y="1588.8" type="line"/>
      <point x="150.8" y="1683.2"/>
      <point x="229.0" y="1727.0"/>
      <point x="338.2" y="1727.0" type="curve" smooth="yes"/>
      <point x="447.4" y="1727.0"/>
      <point x="531.6" y="1678.8"/>
      <point x="552.8" y="1588.8" type="curve"/>
      <point x="645.2" y="1588.8" type="line"/>
      <point x="631.4" y="1753.6"/>
      <point x="523.2" y="1841.6"/>
      <point x="345.6" y="1841.6" type="curve" smooth="yes"/>
      <point x="163.0" y="1841.6"/>
      <point x="55.8" y="1760.0"/>
    </contour>
  </outline>
</glyph>
<glyph name="Delta" format="1">
  <advance width="1714.0"/>
  <unicode hex="0394"/>
  <outline>
    <contour>
      <point x="52.4" y="0.0" type="line"/>
      <point x="1360.6" y="0.0" type="line"/>
      <point x="1360.6" y="85.6" type="line"/>
      <point x="804.2" y="1528.6" type="line"/>
      <point x="609.4" y="1528.6" type="line"/>
      <point x="52.4" y="85.6" type="line"/>
    </contour>
    <contour>
      <point x="297.4" y="173.2" type="line"/>
      <point x="667.4" y="1188.6" type="line"/>
      <point x="701.4" y="1302.8" type="line"/>
      <point x="737.8" y="1188.6" type="line"/>
      <point x="1114.6" y="173.2" type="line"/>
    </contour>
  </outline>
</glyph>
<glyph name="uni03A9" format="1">
  <advance width="2091.0"/>
  <unicode hex="03A9"/>
  <outline>
    <contour>
      <point x="132.8" y="0.0" type="line"/>
      <point x="711.8" y="0.0" type="line"/>
      <point x="708.4" y="129.4" type="line"/>
      <point x="652.8" y="165.8"/>
      <point x="603.0" y="208.6"/>
      <point x="556.8" y="256.8" type="curve" smooth="yes"/>
      <point x="435.2" y="386.2"/>
      <point x="335.0" y="568.2"/>
      <point x="335.0" y="811.8" type="curve" smooth="yes"/>
      <point x="335.0" y="898.4"/>
      <point x="348.2" y="977.6"/>
      <point x="374.8" y="1050.4" type="curve" smooth="yes"/>
      <point x="448.6" y="1249.2"/>
      <point x="615.4" y="1400.2"/>
      <point x="881.6" y="1400.2" type="curve" smooth="yes"/>
      <point x="970.6" y="1400.2"/>
      <point x="1048.8" y="1384.0"/>
      <point x="1115.2" y="1352.0" type="curve" smooth="yes"/>
      <point x="1298.8" y="1263.4"/>
      <point x="1415.8" y="1074.0"/>
      <point x="1415.8" y="806.4" type="curve" smooth="yes"/>
      <point x="1415.8" y="735.0"/>
      <point x="1406.0" y="665.2"/>
      <point x="1386.4" y="599.2" type="curve" smooth="yes"/>
      <point x="1327.8" y="392.6"/>
      <point x="1197.4" y="236.6"/>
      <point x="1037.0" y="129.4" type="curve"/>
      <point x="1041.4" y="0.0" type="line"/>
      <point x="1598.4" y="0.0" type="line"/>
      <point x="1608.2" y="148.0" type="line"/>
      <point x="1257.0" y="146.6" type="line"/>
      <point x="1350.0" y="220.4"/>
      <point x="1437.0" y="316.4"/>
      <point x="1499.0" y="425.6" type="curve" smooth="yes"/>
      <point x="1558.6" y="532.8"/>
      <point x="1605.8" y="664.2"/>
      <point x="1605.8" y="825.6" type="curve" smooth="yes"/>
      <point x="1605.8" y="1048.0"/>
      <point x="1526.0" y="1222.6"/>
      <point x="1412.4" y="1341.2" type="curve" smooth="yes"/>
      <point x="1295.8" y="1463.2"/>
      <point x="1119.2" y="1550.2"/>
      <point x="887.0" y="1550.2" type="curve" smooth="yes"/>
      <point x="659.2" y="1550.2"/>
      <point x="477.6" y="1469.6"/>
      <point x="355.6" y="1354.4" type="curve" smooth="yes"/>
      <point x="231.6" y="1237.8"/>
      <point x="143.6" y="1063.2"/>
      <point x="143.6" y="830.0" type="curve" smooth="yes"/>
      <point x="143.6" y="756.2"/>
      <point x="152.4" y="684.8"/>
      <point x="169.6" y="618.4" type="curve" smooth="yes"/>
      <point x="220.8" y="411.8"/>
      <point x="337.4" y="256.8"/>
      <point x="487.0" y="146.6" type="curve"/>
      <point x="121.0" y="148.0" type="line"/>
    </contour>
  </outline>
</glyph>
<glyph name="uni03BC" format="1">
  <advance width="1587.4"/>
  <unicode hex="03BC"/>
  <outline>
    <contour>
      <point x="205.0" y="-263.6" type="line"/>
      <point x="381.2" y="-263.6" type="line"/>
      <point x="381.2" y="-14.6" type="line"/>
      <point x="442.2" y="-51.0"/>
      <point x="517.4" y="-71.8"/>
      <point x="614.8" y="-71.8" type="curve" smooth="yes"/>
      <point x="773.2" y="-71.8"/>
      <point x="893.8" y="-15.2"/>
      <point x="976.0" y="97.0" type="curve"/>
      <point x="979.4" y="-47.6" type="line"/>
      <point x="1161.0" y="-47.6" type="line"/>
      <point x="1153.6" y="42.4"/>
      <point x="1152.6" y="119.2"/>
      <point x="1152.6" y="215.6" type="curve" smooth="yes"/>
      <point x="1152.6" y="1050.0" type="line"/>
      <point x="976.0" y="1050.0" type="line"/>
      <point x="976.0" y="418.8" type="line" smooth="yes"/>
      <point x="976.0" y="371.6"/>
      <point x="968.6" y="326.8"/>
      <point x="954.8" y="284.0" type="curve" smooth="yes"/>
      <point x="914.0" y="162.0"/>
      <point x="816.6" y="69.0"/>
      <point x="655.2" y="69.0" type="curve" smooth="yes"/>
      <point x="460.4" y="69.0"/>
      <point x="381.2" y="181.2"/>
      <point x="381.2" y="379.4" type="curve" smooth="yes"/>
      <point x="381.2" y="1050.0" type="line"/>
      <point x="205.0" y="1050.0" type="line"/>
    </contour>
  </outline>
</glyph>
<glyph name="endash" format="1">
  <advance width="1415.0"/>
  <unicode hex="2013"/>
  <outline>
    <contour>
      <point x="-7.6" y="637.8" type="line"/>
      <point x="1158.0" y="637.8" type="line"/>
      <point x="1158.0" y="784.4" type="line"/>
      <point x="-7.6" y="784.4" type="line"/>
    </contour>
  </outline>
</glyph>
<glyph name="quotesinglbase" format="1">
  <advance width="721.4"/>
  <unicode hex="201A"/>
  <outline>
    <contour>
      <point x="163.0" y="-310.4" type="line"/>
      <point x="305.2" y="-310.4" type="line"/>
      <point x="470.0" y="159.0" type="line"/>
      <point x="276.6" y="159.0" type="line"/>
    </contour>
  </outline>
</glyph>
<glyph name="quotedblright" format="1">
  <advance width="1335.6"/>
  <unicode hex="201D"/>
  <outline>
    <contour>
      <point x="271.2" y="1334.6" type="line"/>
      <point x="413.4" y="1334.6" type="line"/>
      <point x="577.6" y="1805.4" type="line"/>
      <point x="382.4" y="1805.4" type="line"/>
    </contour>
    <contour>
      <point x="620.0" y="1334.6" type="line"/>
      <point x="762.6" y="1334.6" type="line"/>
      <point x="927.0" y="1805.4" type="line"/>
      <point x="732.6" y="1805.4" type="line"/>
    </contour>
  </outline>
</glyph>
<glyph name="daggerdbl" format="1">
  <advance width="1332.8"/>
  <unicode hex="2021"/>
  <outline>
    <contour>
      <point x="472.0" y="147.4" type="line"/>
      <point x="655.4" y="147.4" type="line"/>
      <point x="627.4" y="491.8" type="line"/>
      <point x="995.4" y="491.8" type="line"/>
      <point x="995.4" y="627.6" type="line"/>
      <point x="627.4" y="627.6" type="line"/>
      <point x="627.4" y="1077.8" type="line"/>
      <point x="1002.8" y="1077.8" type="line"/>
      <point x="1002.8" y="1219.4" type="line"/>
      <point x="634.8" y="1219.4" type="line"/>
      <point x="657.0" y="1578.6" type="line"/>
      <point x="474.4" y="1578.6" type="line"/>
      <point x="502.4" y="1219.4" type="line"/>
      <point x="134.4" y="1219.4" type="line"/>
      <point x="134.4" y="1077.8" type="line"/>
      <point x="495.6" y="1077.8" type="line"/>
      <point x="495.6" y="627.6" type="line"/>
      <point x="128.0" y="627.6" type="line"/>
      <point x="128.0" y="491.8" type="line"/>
      <point x="495.6" y="491.8" type="line"/>
    </contour>
  </outline>
</glyph>
<glyph name="perthousand" format="1">
  <advance width="3112.4"/>
  <unicode hex="2030"/>
  <outline>
    <contour>
      <point x="456.0" y="785.2" type="curve" smooth="yes"/>
      <point x="512.6" y="785.2"/>
      <point x="563.8" y="793.6"/>
      <point x="608.6" y="813.2" type="curve" smooth="yes"/>
      <point x="734.0" y="865.4"/>
      <point x="818.6" y="986.4"/>
      <point x="818.6" y="1161.6" type="curve" smooth="yes"/>
      <point x="818.6" y="1397.2"/>
      <point x="693.2" y="1541.4"/>
      <point x="458.0" y="1541.4" type="curve" smooth="yes"/>
      <point x="400.0" y="1541.4"/>
      <point x="348.8" y="1532.0"/>
      <point x="304.0" y="1512.4" type="curve" smooth="yes"/>
      <point x="178.0" y="1460.2"/>
      <point x="95.4" y="1341.6"/>
      <point x="95.4" y="1165.0" type="curve" smooth="yes"/>
      <point x="95.4" y="932.8"/>
      <point x="222.8" y="785.2"/>
    </contour>
    <contour>
      <point x="1270.8" y="-35.0" type="curve" smooth="yes"/>
      <point x="1328.8" y="-35.0"/>
      <point x="1379.6" y="-25.6"/>
      <point x="1424.8" y="-6.0" type="curve" smooth="yes"/>
      <point x="1550.8" y="47.2"/>
      <point x="1633.4" y="164.8"/>
      <point x="1633.4" y="341.4" type="curve" smooth="yes"/>
      <point x="1633.4" y="575.2"/>
      <point x="1509.4" y="722.2"/>
      <point x="1274.8" y="722.2" type="curve" smooth="yes"/>
      <point x="1216.2" y="722.2"/>
      <point x="1163.6" y="712.8"/>
      <point x="1118.8" y="693.2" type="curve" smooth="yes"/>
      <point x="991.8" y="640.0"/>
      <point x="910.2" y="522.0"/>
      <point x="910.2" y="344.8" type="curve" smooth="yes"/>
      <point x="910.2" y="112.6"/>
      <point x="1038.0" y="-35.0"/>
    </contour>
    <contour>
      <point x="2113.0" y="-35.0" type="curve" smooth="yes"/>
      <point x="2171.0" y="-35.0"/>
      <point x="2221.8" y="-25.6"/>
      <point x="2266.6" y="-6.0" type="curve" smooth="yes"/>
      <point x="2392.0" y="46.2"/>
      <point x="2476.6" y="165.8"/>
      <point x="2476.6" y="341.4" type="curve" smooth="yes"/>
      <point x="2476.6" y="576.6"/>
      <point x="2353.6" y="722.2"/>
      <point x="2118.0" y="722.2" type="curve" smooth="yes"/>
      <point x="2059.4" y="722.2"/>
      <point x="2006.8" y="712.8"/>
      <point x="1962.0" y="693.2" type="curve" smooth="yes"/>
      <point x="1835.0" y="640.0"/>
      <point x="1753.4" y="522.0"/>
      <point x="1753.4" y="344.8" type="curve" smooth="yes"/>
      <point x="1753.4" y="113.2"/>
      <point x="1880.8" y="-35.0"/>
    </contour>
    <contour>
      <point x="343.0" y="1052.0" type="curve" smooth="yes"/>
      <point x="279.0" y="970.4"/>
      <point x="286.8" y="956.2"/>
      <point x="368.4" y="1020.2" type="curve" smooth="yes"/>
      <point x="447.0" y="1081.8"/>
      <point x="510.8" y="1198.2"/>
      <point x="572.4" y="1276.2" type="curve" smooth="yes"/>
      <point x="635.2" y="1357.2"/>
      <point x="627.8" y="1371.4"/>
      <point x="547.4" y="1308.2" type="curve" smooth="yes"/>
      <point x="468.8" y="1247.0"/>
      <point x="404.6" y="1130.6"/>
    </contour>
    <contour>
      <point x="371.2" y="-28.6" type="line"/>
      <point x="351.0" y="-28.6" type="line"/>
      <point x="1352.6" y="1529.6" type="line"/>
      <point x="1372.0" y="1529.6" type="line"/>
    </contour>
    <contour>
      <point x="1273.8" y="85.6" type="curve" smooth="yes"/>
      <point x="1129.6" y="85.6"/>
      <point x="1065.6" y="199.2"/>
      <point x="1065.6" y="344.8" type="curve" smooth="yes"/>
      <point x="1065.6" y="487.0"/>
      <point x="1130.6" y="600.2"/>
      <point x="1273.2" y="600.2" type="curve" smooth="yes"/>
      <point x="1417.4" y="600.2"/>
      <point x="1479.8" y="489.0"/>
      <point x="1479.8" y="343.4" type="curve" smooth="yes"/>
      <point x="1479.8" y="203.2"/>
      <point x="1414.0" y="85.6"/>
    </contour>
    <contour>
      <point x="2117.0" y="85.6" type="curve" smooth="yes"/>
      <point x="1972.8" y="85.6"/>
      <point x="1908.4" y="199.2"/>
      <point x="1908.4" y="344.8" type="curve" smooth="yes"/>
      <point x="1908.4" y="487.0"/>
      <point x="1973.4" y="600.2"/>
      <point x="2116.0" y="600.2" type="curve" smooth="yes"/>
      <point x="2259.2" y="600.2"/>
      <point x="2323.2" y="486.6"/>
      <point x="2323.2" y="343.4" type="curve" smooth="yes"/>
      <point x="2323.2" y="202.2"/>
      <point x="2258.6" y="85.6"/>
    </contour>
  </outline>
</glyph>
<glyph name="guilsinglright" format="1">
  <advance width="837.2"/>
  <unicode hex="203A"/>
  <outline>
    <contour>
      <point x="134.2" y="223.0" type="line"/>
      <point x="302.4" y="223.0" type="line"/>
      <point x="598.6" y="620.0" type="line"/>
      <point x="308.8" y="1018.0" type="line"/>
      <point x="143.0" y="1018.0" type="line"/>
      <point x="414.6" y="620.0" type="line"/>
    </contour>
  </outline>
</glyph>
<glyph name="partialdiff" format="1">
  <advance width="1522.2"/>
  <unicode hex="2202"/>
  <outline>
    <contour>
      <point x="546.0" y="-31.2" type="curve" smooth="yes"/>
      <point x="615.4" y="-31.2"/>
      <point x="680.8" y="-18.8"/>
      <point x="738.4" y="6.2" type="curve" smooth="yes"/>
      <point x="860.4" y="58.8"/>
      <point x="950.4" y="150.4"/>
      <point x="1015.4" y="264.0" type="curve" smooth="yes"/>
      <point x="1110.4" y="429.8"/>
      <point x="1168.4" y="647.8"/>
      <point x="1168.4" y="905.6" type="curve" smooth="yes"/>
      <point x="1168.4" y="1031.0"/>
      <point x="1156.6" y="1138.8"/>
      <point x="1132.0" y="1230.8" type="curve" smooth="yes"/>
      <point x="1071.0" y="1463.0"/>
      <point x="931.8" y="1634.2"/>
      <point x="648.4" y="1634.2" type="curve" smooth="yes"/>
      <point x="518.0" y="1634.2"/>
      <point x="399.4" y="1590.4"/>
      <point x="319.2" y="1536.8" type="curve"/>
      <point x="330.6" y="1389.2" type="line"/>
      <point x="405.4" y="1439.4"/>
      <point x="502.2" y="1491.0"/>
      <point x="623.8" y="1491.0" type="curve" smooth="yes"/>
      <point x="680.8" y="1491.0"/>
      <point x="729.6" y="1479.2"/>
      <point x="774.8" y="1455.6" type="curve" smooth="yes"/>
      <point x="920.0" y="1377.4"/>
      <point x="985.4" y="1195.8"/>
      <point x="985.4" y="969.0" type="curve" smooth="yes"/>
      <point x="985.4" y="946.4"/>
      <point x="984.4" y="910.0"/>
      <point x="984.4" y="888.8" type="curve"/>
      <point x="909.6" y="986.2"/>
      <point x="806.4" y="1066.4"/>
      <point x="646.4" y="1066.4" type="curve" smooth="yes"/>
      <point x="571.2" y="1066.4"/>
      <point x="502.2" y="1049.8"/>
      <point x="436.8" y="1017.8" type="curve" smooth="yes"/>
      <point x="247.4" y="925.2"/>
      <point x="108.2" y="723.0"/>
      <point x="108.2" y="443.6" type="curve" smooth="yes"/>
      <point x="108.2" y="376.2"/>
      <point x="117.6" y="314.2"/>
      <point x="135.8" y="256.2" type="curve" smooth="yes"/>
      <point x="190.4" y="87.0"/>
      <point x="323.6" y="-31.2"/>
    </contour>
    <contour>
      <point x="549.0" y="113.0" type="curve" smooth="yes"/>
      <point x="509.2" y="113.0"/>
      <point x="472.8" y="120.8"/>
      <point x="441.2" y="136.6" type="curve" smooth="yes"/>
      <point x="342.8" y="184.8"/>
      <point x="289.2" y="294.0"/>
      <point x="289.2" y="440.6" type="curve" smooth="yes"/>
      <point x="289.2" y="579.4"/>
      <point x="336.0" y="698.4"/>
      <point x="399.0" y="779.6" type="curve" smooth="yes"/>
      <point x="457.0" y="854.8"/>
      <point x="548.0" y="923.8"/>
      <point x="671.0" y="923.8" type="curve" smooth="yes"/>
      <point x="708.4" y="923.8"/>
      <point x="742.4" y="918.4"/>
      <point x="773.4" y="905.6" type="curve" smooth="yes"/>
      <point x="866.4" y="868.2"/>
      <point x="931.8" y="790.4"/>
      <point x="966.2" y="695.0" type="curve"/>
      <point x="948.0" y="536.6"/>
      <point x="897.4" y="389.0"/>
      <point x="827.0" y="284.2" type="curve" smooth="yes"/>
      <point x="768.4" y="197.6"/>
      <point x="680.4" y="113.0"/>
    </contour>
  </outline>
</glyph>
<glyph name="summation" format="1">
  <advance width="1648.8"/>
  <unicode hex="2211"/>
  <outline>
    <contour>
      <point x="74.6" y="-429.4" type="line"/>
      <point x="1318.4" y="-429.4" type="line"/>
      <point x="1318.4" y="-271.0" type="line"/>
      <point x="327.6" y="-271.0" type="line"/>
      <point x="974.0" y="522.6" type="line"/>
      <point x="361.0" y="1293.0" type="line"/>
      <point x="1270.2" y="1293.0" type="line"/>
      <point x="1270.2" y="1444.6" type="line"/>
      <point x="97.8" y="1444.6" type="line"/>
      <point x="97.8" y="1343.6" type="line"/>
      <point x="758.6" y="513.2" type="line"/>
      <point x="74.6" y="-333.0" type="line"/>
    </contour>
  </outline>
</glyph>
<glyph name="integral" format="1">
  <advance width="915.6"/>
  <unicode hex="222B"/>
  <outline>
    <contour>
      <point x="306.8" y="-520.6" type="curve" smooth="yes"/>
      <point x="545.4" y="-520.6"/>
      <point x="624.6" y="-355.8"/>
      <point x="624.6" y="-118.2" type="curve" smooth="yes"/>
      <point x="624.6" y="1274.6" type="line" smooth="yes"/>
      <point x="624.6" y="1420.2"/>
      <point x="653.6" y="1506.4"/>
      <point x="799.2" y="1506.4" type="curve" smooth="yes"/>
      <point x="838.6" y="1506.4"/>
      <point x="888.8" y="1501.4"/>
      <point x="916.8" y="1490.6" type="curve"/>
      <point x="914.4" y="1628.4" type="line"/>
      <point x="867.2" y="1639.2"/>
      <point x="827.4" y="1650.6"/>
      <point x="768.8" y="1650.6" type="curve" smooth="yes"/>
      <point x="530.6" y="1650.6"/>
      <point x="449.0" y="1486.2"/>
      <point x="449.0" y="1248.6" type="curve" smooth="yes"/>
      <point x="449.0" y="-143.8" type="line" smooth="yes"/>
      <point x="449.0" y="-289.4"/>
      <point x="422.4" y="-376.0"/>
      <point x="276.8" y="-376.0" type="curve" smooth="yes"/>
      <point x="237.0" y="-376.0"/>
      <point x="186.8" y="-370.6"/>
      <point x="159.2" y="-359.8" type="curve"/>
      <point x="161.6" y="-498.0" type="line"/>
      <point x="212.8" y="-511.8"/>
      <point x="243.8" y="-520.6"/>
    </contour>
  </outline>
</glyph>
<glyph name="approxequal" format="1">
  <advance width="1762.2"/>
  <unicode hex="2248"/>
  <outline>
    <contour>
      <point x="322.4" y="340.6" type="line"/>
      <point x="350.0" y="434.6"/>
      <point x="401.6" y="517.2"/>
      <point x="516.2" y="517.2" type="curve" smooth="yes"/>
      <point x="546.2" y="517.2"/>
      <point x="576.8" y="510.4"/>
      <point x="609.2" y="496.6" type="curve" smooth="yes"/>
      <point x="664.4" y="473.0"/>
      <point x="738.6" y="427.8"/>
      <point x="791.8" y="400.2" type="curve" smooth="yes"/>
      <point x="850.4" y="370.2"/>
      <point x="911.8" y="341.6"/>
      <point x="996.4" y="341.6" type="curve" smooth="yes"/>
      <point x="1182.4" y="341.6"/>
      <point x="1270.0" y="462.2"/>
      <point x="1305.4" y="615.6" type="curve"/>
      <point x="1187.8" y="645.6" type="line"/>
      <point x="1154.8" y="556.6"/>
      <point x="1109.6" y="467.6"/>
      <point x="1002.8" y="467.6" type="curve" smooth="yes"/>
      <point x="971.8" y="467.6"/>
      <point x="938.8" y="477.8"/>
      <point x="902.4" y="495.6" type="curve" smooth="yes"/>
      <point x="866.0" y="514.2"/>
      <point x="827.2" y="534.4"/>
      <point x="786.4" y="556.6" type="curve" smooth="yes"/>
      <point x="714.6" y="596.4"/>
      <point x="623.6" y="645.6"/>
      <point x="519.2" y="645.6" type="curve" smooth="yes"/>
      <point x="338.2" y="645.6"/>
      <point x="237.8" y="524.6"/>
      <point x="200.4" y="370.6" type="curve"/>
    </contour>
    <contour>
      <point x="321.0" y="739.6" type="line"/>
      <point x="349.0" y="832.6"/>
      <point x="399.2" y="915.8"/>
      <point x="512.4" y="915.8" type="curve" smooth="yes"/>
      <point x="542.8" y="915.8"/>
      <point x="573.8" y="909.4"/>
      <point x="604.8" y="895.6" type="curve" smooth="yes"/>
      <point x="660.4" y="871.0"/>
      <point x="734.2" y="825.8"/>
      <point x="788.8" y="798.2" type="curve" smooth="yes"/>
      <point x="849.8" y="767.2"/>
      <point x="908.4" y="739.6"/>
      <point x="994.0" y="739.6" type="curve" smooth="yes"/>
      <point x="1179.0" y="739.6"/>
      <point x="1271.0" y="858.6"/>
      <point x="1303.4" y="1013.6" type="curve"/>
      <point x="1185.8" y="1043.6" type="line"/>
      <point x="1153.4" y="951.6"/>
      <point x="1108.6" y="865.6"/>
      <point x="1000.4" y="865.6" type="curve" smooth="yes"/>
      <point x="971.4" y="865.6"/>
      <point x="940.8" y="873.4"/>
      <point x="906.4" y="887.2" type="curve" smooth="yes"/>
      <point x="791.2" y="934.4"/>
      <point x="674.2" y="1042.2"/>
      <point x="516.8" y="1042.2" type="curve" smooth="yes"/>
      <point x="333.8" y="1042.2"/>
      <point x="233.4" y="926.0"/>
      <point x="198.0" y="768.6" type="curve"/>
    </contour>
  </outline>
</glyph>
<glyph name="lozenge" format="1">
  <advance width="1628.0"/>
  <unicode hex="25CA"/>
  <outline>
    <contour>
      <point x="627.6" y="-58.6" type="line"/>
      <point x="740.8" y="-58.6" type="line"/>
      <point x="1234.8" y="750.8" type="line"/>
      <point x="750.2" y="1562.0" type="line"/>
      <point x="635.6" y="1562.0" type="line"/>
      <point x="146.0" y="749.8" type="line"/>
    </contour>
    <contour>
      <point x="684.2" y="94.4" type="curve"/>
      <point x="561.2" y="316.8"/>
      <point x="431.4" y="532.8"/>
      <point x="305.4" y="752.2" type="curve"/>
      <point x="434.8" y="970.2"/>
      <point x="571.6" y="1180.8"/>
      <point x="695.0" y="1405.6" type="curve"/>
      <point x="816.6" y="1183.2"/>
      <point x="947.4" y="969.2"/>
      <point x="1073.4" y="749.8" type="curve"/>
      <point x="944.0" y="530.4"/>
      <point x="808.2" y="318.2"/>
    </contour>
  </outline>
</glyph>
<glyph name="uniF6C3" format="1">
  <advance width="781.4"/>
  <unicode hex="F6C3"/>
  <outline>
    <contour>
      <point x="143.6" y="-786.6" type="line"/>
      <point x="283.4" y="-786.6" type="line"/>
      <point x="457.6" y="-291.6" type="line"/>
      <point x="257.8" y="-291.6" type="line"/>
    </contour>
  </outline>
</glyph>
<glyph name="J.alt" format="1">
  <advance width="1224.6"/>
  <outline>
    <contour>
      <point x="359.8" y="-29.8" type="curve" smooth="yes"/>
      <point x="431.6" y="-29.8"/>
      <point x="495.6" y="-18.4"/>
      <point x="553.6" y="6.6" type="curve" smooth="yes"/>
      <point x="734.2" y="82.4"/>
      <point x="824.2" y="268.4"/>
      <point x="824.2" y="528.6" type="curve" smooth="yes"/>
      <point x="824.2" y="1552.0" type="line"/>
      <point x="640.2" y="1552.0" type="line"/>
      <point x="640.2" y="516.4" type="line" smooth="yes"/>
      <point x="640.2" y="311.2"/>
      <point x="569.8" y="128.2"/>
      <point x="365.6" y="128.2" type="curve" smooth="yes"/>
      <point x="270.2" y="128.2"/>
      <point x="204.8" y="161.6"/>
      <point x="147.2" y="205.4" type="curve"/>
      <point x="92.6" y="81.4" type="line"/>
      <point x="157.0" y="17.0"/>
      <point x="239.2" y="-29.8"/>
    </contour>
  </outline>
</glyph>
<glyph name="nine.alt" format="1">
  <advance width="1552.0"/>
  <outline>
    <contour>
      <point x="570.4" y="-29.8" type="curve" smooth="yes"/>
      <point x="669.8" y="-29.8"/>
      <point x="757.8" y="-9.6"/>
      <point x="834.6" y="31.2" type="curve" smooth="yes"/>
      <point x="1072.8" y="157.2"/>
      <point x="1189.8" y="439.2"/>
      <point x="1189.8" y="805.2" type="curve" smooth="yes"/>
      <point x="1189.8" y="925.2"/>
      <point x="1178.0" y="1032.0"/>
      <point x="1153.4" y="1124.0" type="curve" smooth="yes"/>
      <point x="1090.0" y="1366.0"/>
      <point x="939.8" y="1548.6"/>
      <point x="642.2" y="1548.6" type="curve" smooth="yes"/>
      <point x="562.0" y="1548.6"/>
      <point x="488.2" y="1535.8"/>
      <point x="422.8" y="1510.2" type="curve" smooth="yes"/>
      <point x="246.2" y="1440.4"/>
      <point x="114.8" y="1286.8"/>
      <point x="114.8" y="1047.2" type="curve" smooth="yes"/>
      <point x="114.8" y="976.8"/>
      <point x="126.6" y="911.0"/>
      <point x="149.2" y="852.4" type="curve" smooth="yes"/>
      <point x="215.6" y="681.6"/>
      <point x="369.2" y="564.6"/>
      <point x="603.4" y="564.6" type="curve" smooth="yes"/>
      <point x="796.2" y="564.6"/>
      <point x="925.6" y="627.6"/>
      <point x="1002.4" y="751.0" type="curve"/>
      <point x="1002.4" y="725.4" type="line"/>
      <point x="999.4" y="558.6"/>
      <point x="958.6" y="407.6"/>
      <point x="890.2" y="302.8" type="curve" smooth="yes"/>
      <point x="826.8" y="204.4"/>
      <point x="725.8" y="121.8"/>
      <point x="573.8" y="121.8" type="curve" smooth="yes"/>
      <point x="449.4" y="121.8"/>
      <point x="350.0" y="162.6"/>
      <point x="273.8" y="244.8" type="curve"/>
      <point x="216.6" y="124.2" type="line"/>
      <point x="289.4" y="31.2"/>
      <point x="407.6" y="-29.8"/>
    </contour>
    <contour>
      <point x="632.4" y="714.6" type="curve" smooth="yes"/>
      <point x="419.4" y="714.6"/>
      <point x="303.2" y="842.0"/>
      <point x="303.2" y="1052.2" type="curve" smooth="yes"/>
      <point x="303.2" y="1101.8"/>
      <point x="310.6" y="1148.0"/>
      <point x="326.8" y="1189.8" type="curve" smooth="yes"/>
      <point x="370.6" y="1308.4"/>
      <point x="473.0" y="1398.0"/>
      <point x="633.8" y="1398.0" type="curve" smooth="yes"/>
      <point x="690.4" y="1398.0"/>
      <point x="740.6" y="1387.2"/>
      <point x="784.4" y="1367.0" type="curve" smooth="yes"/>
      <point x="899.0" y="1312.4"/>
      <point x="989.6" y="1198.2"/>
      <point x="989.6" y="1033.4" type="curve" smooth="yes"/>
      <point x="989.6" y="984.2"/>
      <point x="980.6" y="940.0"/>
      <point x="961.0" y="900.6" type="curve" smooth="yes"/>
      <point x="907.8" y="790.4"/>
      <point x="792.8" y="714.6"/>
    </contour>
  </outline>
</glyph>
<glyph name="u.alt" format="1">
  <advance width="1584.6"/>
  <outline>
    <contour>
      <point x="594.8" y="-31.2" type="curve" smooth="yes"/>
      <point x="764.0" y="-31.2"/>
      <point x="891.8" y="35.2"/>
      <point x="979.4" y="160.2" type="curve"/>
      <point x="1008.4" y="41.6"/>
      <point x="1112.8" y="-10.0"/>
      <point x="1216.6" y="-10.0" type="curve"/>
      <point x="1254.0" y="143.4" type="line"/>
      <point x="1198.4" y="143.4"/>
      <point x="1121.2" y="176.4"/>
      <point x="1121.2" y="300.4" type="curve" smooth="yes"/>
      <point x="1121.2" y="1091.6" type="line"/>
      <point x="945.0" y="1091.6" type="line"/>
      <point x="945.0" y="441.2" type="line" smooth="yes"/>
      <point x="945.0" y="231.6"/>
      <point x="775.8" y="120.8"/>
      <point x="621.8" y="120.8" type="curve" smooth="yes"/>
      <point x="492.4" y="120.8"/>
      <point x="375.2" y="190.2"/>
      <point x="375.2" y="399.8" type="curve" smooth="yes"/>
      <point x="375.2" y="631.0" type="line" smooth="yes"/>
      <point x="375.2" y="969.4"/>
      <point x="333.0" y="1091.6"/>
      <point x="333.0" y="1091.6" type="curve"/>
      <point x="156.8" y="1091.6" type="line"/>
      <point x="156.8" y="1091.6"/>
      <point x="198.2" y="926.2"/>
      <point x="198.2" y="616.8" type="curve" smooth="yes"/>
      <point x="198.2" y="399.8" type="line" smooth="yes"/>
      <point x="198.2" y="94.8"/>
      <point x="387.6" y="-31.2"/>
    </contour>
  </outline>
</glyph>
